<svg xmlns="http://www.w3.org/2000/svg" xmlns:xlink="http://www.w3.org/1999/xlink" width="0" height="0" style="position:absolute">
	
		<symbol id="add" viewBox="0 0 32 32">
			<title>add</title><g transform="translate(7 7)" fill-rule="nonzero" fill="var(--color)"><path d="M9.375 18.357C4.473 18.357.5 14.359.5 9.428.5 4.498 4.473.5 9.375.5c4.903 0 8.876 3.998 8.876 8.928 0 4.93-3.973 8.929-8.876 8.929zm0-1c4.35 0 7.876-3.55 7.876-7.929 0-4.379-3.527-7.928-7.876-7.928C5.027 1.5 1.5 5.049 1.5 9.428c0 4.38 3.527 7.929 7.875 7.929z"></path><path d="M5 10.107h8.599v-1H5z"></path><path d="M8.947 5.038v8.017h1V5.038z"></path></g>
		</symbol>
	
		<symbol id="copy" viewBox="0 0 32 32">
			<title>copy</title><g transform="translate(7 6)" fill-rule="nonzero" fill="var(--color)"><path d="M1 7.538L7.379 1h5.536v2.297h1V0H6.957L0 7.13v7.132h2.53v-1H1V7.538zm11.915-4.241h1V0H6.957L0 7.13v7.132h2.53v-1H1V7.538L7.379 1h5.536v2.297z"></path><path d="M5 19.262h11.915V7h-5.536L5 13.538v5.724zM4 13.13L10.957 6h6.958v14.262H4V13.13z"></path><path d="M10.172 12.669H5v1h6.172V7h-1zM1 6.669v1h6.172V1h-1v5.669z"></path></g>
		</symbol>
	
		<symbol id="info" viewBox="0 0 32 32">
			<title>info</title><g fill="var(--color)" transform="translate(7 7)" fill-rule="nonzero"><path d="M9.375 18.357C4.473 18.357.5 14.359.5 9.428.5 4.498 4.473.5 9.375.5c4.903 0 8.876 3.998 8.876 8.928 0 4.93-3.973 8.929-8.876 8.929zm0-1c4.35 0 7.876-3.55 7.876-7.929 0-4.379-3.527-7.928-7.876-7.928C5.027 1.5 1.5 5.049 1.5 9.428c0 4.38 3.527 7.929 7.875 7.929z"></path><g transform="translate(7.375 4)"><path d="M2.242 7.73c.247-.605 2.312-3.658.885-4.498-.797-.47-1.906-.167-2.755.386l-.057.527c.5-.167 1.014-.167 1.168.23.375.967-.908 2.658-1.259 3.544-.951 2.403 1.333 2.68 2.962 1.69l.062-.57c-.886.236-1.519-.053-1.006-1.309z"></path><ellipse cx="3.144" cy="1.121" rx="1.144" ry="1.121"></ellipse></g></g>
		</symbol>
	
		<symbol id="search" viewBox="0 0 32 32">
			<title>search</title><g transform="translate(4 5)" fill-rule="nonzero" fill="var(--color)"><path d="M13.158 18.51c-4.945 0-8.952-4.032-8.952-9.005C4.206 4.532 8.213.5 13.158.5c4.944 0 8.951 4.032 8.951 9.005 0 4.973-4.007 9.005-8.951 9.005zm0-1c4.39 0 7.951-3.583 7.951-8.005 0-4.422-3.56-8.005-7.951-8.005S5.206 5.083 5.206 9.505c0 4.422 3.56 8.005 7.952 8.005z"></path><path d="M7.039 15.47L.646 21.862l.708.707 6.392-6.392z"></path></g>
		</symbol>
	
		<symbol id="share" viewBox="0 0 32 32">
			<title>share</title><g transform="translate(5 7)" fill-rule="nonzero" fill="var(--color)"><path d="M16.956 7.45A3.465 3.465 0 0 1 13.5 3.974 3.465 3.465 0 0 1 16.956.5a3.465 3.465 0 0 1 3.456 3.475 3.465 3.465 0 0 1-3.456 3.474zm0-1a2.465 2.465 0 0 0 2.456-2.475c0-1.368-1.1-2.475-2.456-2.475A2.465 2.465 0 0 0 14.5 3.975c0 1.367 1.1 2.474 2.456 2.474zM16.956 18.45a3.465 3.465 0 0 1-3.456-3.475 3.465 3.465 0 0 1 3.456-3.475 3.465 3.465 0 0 1 3.456 3.475 3.465 3.465 0 0 1-3.456 3.474zm0-1a2.465 2.465 0 0 0 2.456-2.475c0-1.368-1.1-2.475-2.456-2.475a2.465 2.465 0 0 0-2.456 2.475c0 1.367 1.1 2.474 2.456 2.474zM4.941 13.433c-2.453 0-4.441-2-4.441-4.467C.5 6.5 2.488 4.5 4.941 4.5c2.454 0 4.442 2 4.442 4.466s-1.988 4.467-4.442 4.467zm0-1c1.9 0 3.442-1.552 3.442-3.467S6.84 5.5 4.94 5.5C3.041 5.5 1.5 7.051 1.5 8.966c0 1.915 1.541 3.467 3.441 3.467z"></path><path d="M13.81 4.547L8.789 6.893l.424.906 5.022-2.346zM14.234 12.893l-5.022-2.346-.424.906 5.023 2.346z"></path></g>
		</symbol>
	
</svg>
