<svg xmlns="http://www.w3.org/2000/svg" xmlns:xlink="http://www.w3.org/1999/xlink"><defs><symbol viewBox="0 0 32 32" id="add"><g fill-rule="nonzero" fill="var(--color)"><path d="M16.375 25.357c-4.902 0-8.875-3.998-8.875-8.929 0-4.93 3.973-8.928 8.875-8.928 4.903 0 8.876 3.998 8.876 8.928 0 4.93-3.973 8.929-8.876 8.929zm0-1c4.35 0 7.876-3.55 7.876-7.929 0-4.379-3.527-7.928-7.876-7.928-4.348 0-7.875 3.549-7.875 7.928 0 4.38 3.527 7.929 7.875 7.929z" /><path d="M12 17.107h8.599v-1H12z" /><path d="M15.947 12.038v8.017h1v-8.017z" /></g></symbol><symbol viewBox="0 0 32 32" id="copy"><g fill-rule="nonzero" fill="var(--color)"><path d="M8 13.538L14.379 7h5.536v2.297h1V6h-6.958L7 13.13v7.132h2.53v-1H8v-5.724zm11.915-4.241h1V6h-6.958L7 13.13v7.132h2.53v-1H8v-5.724L14.379 7h5.536v2.297z" /><path d="M12 25.262h11.915V13h-5.536L12 19.538v5.724zm-1-6.131L17.957 12h6.958v14.262H11V19.13z" /><path d="M17.172 18.669H12v1h6.172V13h-1zM8 12.669v1h6.172V7h-1v5.669z" /></g></symbol><symbol viewBox="0 0 32 32" id="info"><g fill="var(--color)" fill-rule="nonzero"><path d="M16.375 25.357c-4.902 0-8.875-3.998-8.875-8.929 0-4.93 3.973-8.928 8.875-8.928 4.903 0 8.876 3.998 8.876 8.928 0 4.93-3.973 8.929-8.876 8.929zm0-1c4.35 0 7.876-3.55 7.876-7.929 0-4.379-3.527-7.928-7.876-7.928-4.348 0-7.875 3.549-7.875 7.928 0 4.38 3.527 7.929 7.875 7.929z" /><g transform="translate(14.375 11)"><path d="M2.242 7.73c.247-.605 2.312-3.658.885-4.498-.797-.47-1.906-.167-2.755.386l-.057.527c.5-.167 1.014-.167 1.168.23.375.967-.908 2.658-1.259 3.544-.951 2.403 1.333 2.68 2.962 1.69l.062-.57c-.886.236-1.519-.053-1.006-1.309z" /><ellipse cx="3.144" cy="1.121" rx="1.144" ry="1.121" /></g></g></symbol><symbol viewBox="0 0 32 32" id="search"><g fill-rule="nonzero" fill="var(--color)"><path d="M17.158 23.51c-4.945 0-8.952-4.032-8.952-9.005 0-4.973 4.007-9.005 8.952-9.005 4.944 0 8.951 4.032 8.951 9.005 0 4.973-4.007 9.005-8.951 9.005zm0-1c4.39 0 7.951-3.583 7.951-8.005 0-4.422-3.56-8.005-7.951-8.005s-7.952 3.583-7.952 8.005c0 4.422 3.56 8.005 7.952 8.005z" /><path d="M11.039 20.47l-6.393 6.392.708.707 6.392-6.392z" /></g></symbol><symbol viewBox="0 0 32 32" id="share"><g fill-rule="nonzero" fill="var(--color)"><path d="M21.956 14.45a3.465 3.465 0 0 1-3.456-3.475A3.465 3.465 0 0 1 21.956 7.5a3.465 3.465 0 0 1 3.456 3.475 3.465 3.465 0 0 1-3.456 3.474zm0-1a2.465 2.465 0 0 0 2.456-2.475c0-1.368-1.1-2.475-2.456-2.475a2.465 2.465 0 0 0-2.456 2.475c0 1.367 1.1 2.474 2.456 2.474zM21.956 25.45a3.465 3.465 0 0 1-3.456-3.475 3.465 3.465 0 0 1 3.456-3.475 3.465 3.465 0 0 1 3.456 3.475 3.465 3.465 0 0 1-3.456 3.474zm0-1a2.465 2.465 0 0 0 2.456-2.475c0-1.368-1.1-2.475-2.456-2.475a2.465 2.465 0 0 0-2.456 2.475c0 1.367 1.1 2.474 2.456 2.474zM9.941 20.433c-2.453 0-4.441-2-4.441-4.467C5.5 13.5 7.488 11.5 9.941 11.5c2.454 0 4.442 2 4.442 4.466s-1.988 4.467-4.442 4.467zm0-1c1.9 0 3.442-1.552 3.442-3.467S11.84 12.5 9.94 12.5c-1.9 0-3.441 1.551-3.441 3.466 0 1.915 1.541 3.467 3.441 3.467z" /><path d="M18.81 11.547l-5.022 2.346.424.906 5.022-2.346zM19.234 19.893l-5.022-2.346-.424.906 5.023 2.346z" /></g></symbol></defs></svg>