<?xml version="1.0" encoding="UTF-8"?>
<svg width="429px" height="521px" viewBox="0 0 429 521" version="1.1" xmlns="http://www.w3.org/2000/svg" xmlns:xlink="http://www.w3.org/1999/xlink">
    <!-- Generator: Sketch 43.2 (39069) - http://www.bohemiancoding.com/sketch -->
    <title>Group 6</title>
    <desc>Created with Sketch.</desc>
    <defs>
        <filter x="-7.6%" y="-4.4%" width="115.2%" height="117.8%" filterUnits="objectBoundingBox" id="filter-1">
            <feOffset dx="0" dy="19" in="SourceAlpha" result="shadowOffsetOuter1"></feOffset>
            <feGaussianBlur stdDeviation="7" in="shadowOffsetOuter1" result="shadowBlurOuter1"></feGaussianBlur>
            <feColorMatrix values="0 0 0 0 0   0 0 0 0 0   0 0 0 0 0  0 0 0 0.5 0" type="matrix" in="shadowBlurOuter1" result="shadowMatrixOuter1"></feColorMatrix>
            <feMerge>
                <feMergeNode in="shadowMatrixOuter1"></feMergeNode>
                <feMergeNode in="SourceGraphic"></feMergeNode>
            </feMerge>
        </filter>
        <filter x="-1.7%" y="-5.9%" width="103.5%" height="116.5%" filterUnits="objectBoundingBox" id="filter-2">
            <feOffset dx="0" dy="2" in="SourceAlpha" result="shadowOffsetOuter1"></feOffset>
            <feGaussianBlur stdDeviation="2" in="shadowOffsetOuter1" result="shadowBlurOuter1"></feGaussianBlur>
            <feColorMatrix values="0 0 0 0 0   0 0 0 0 0   0 0 0 0 0  0 0 0 0.5 0" type="matrix" in="shadowBlurOuter1" result="shadowMatrixOuter1"></feColorMatrix>
            <feMerge>
                <feMergeNode in="shadowMatrixOuter1"></feMergeNode>
                <feMergeNode in="SourceGraphic"></feMergeNode>
            </feMerge>
        </filter>
        <linearGradient x1="-16.1225464%" y1="50%" x2="105.513129%" y2="100%" id="linearGradient-3">
            <stop stop-color="#BA586E" offset="0%"></stop>
            <stop stop-color="#5C8D99" offset="100%"></stop>
        </linearGradient>
    </defs>
    <g id="Page-1" stroke="none" stroke-width="1" fill="none" fill-rule="evenodd">
        <g id="Group-6" transform="translate(13.000000, 0.000000)">
            <g id="base" transform="translate(201.141176, 185.500000) scale(-1, 1) translate(-201.141176, -185.500000) translate(0.141176, 0.000000)">
                <path d="M38.9579759,315.548157 C138.775763,310.768809 232.642719,279.66642 315.38657,228.154541 C288.433411,102.237201 204.971721,1.67276843 97.4790988,-36.4065349 C129.397199,3.35619946 148.879614,56.3780727 148.879614,114.602457 C148.879614,202.937022 104.036646,279.296892 38.9579533,315.548162 L38.9579759,315.548157 Z" id="topright" fill="#88D1E2" opacity="0.749943388" style="mix-blend-mode: lighten;" transform="translate(177.172262, 139.570813) rotate(-270.000000) translate(-177.172262, -139.570813) "></path>
                <path d="M85.424039,-36.6296374 C186.368659,-32.3387528 281.295066,-1.1306501 364.872992,50.9004789 C337.665805,178.004561 252.879907,279.275595 143.919861,316.52154 C176.918806,276.749901 197.14544,223.13418 197.14544,164.148171 C197.14544,75.5125645 151.474281,-0.997087914 85.424039,-36.6296374 L85.424039,-36.6296374 Z" id="topleft" fill="#FD7795" opacity="0.400079257" style="mix-blend-mode: lighten;" transform="translate(225.148515, 139.945951) rotate(-270.000000) translate(-225.148515, -139.945951) "></path>
                <g id="Group-23-Copy-3" transform="translate(200.000000, 230.692516) scale(1, -1) translate(-200.000000, -230.692516) translate(0.000000, 90.692516)">
                    <path d="M37.8211367,314.837708 C137.638924,310.058361 231.50588,278.955971 314.249731,227.444092 C287.296572,101.526753 203.834882,0.962320127 96.3422596,-37.1169832 C128.26036,2.64575115 147.742774,55.6676244 147.742774,113.892008 C147.742774,202.226574 102.899807,278.586443 37.8211141,314.837713 L37.8211367,314.837708 Z" id="bottomright" fill="#88D1E2" opacity="0.483186141" style="mix-blend-mode: lighten;" transform="translate(176.035423, 138.860365) rotate(-270.000000) translate(-176.035423, -138.860365) "></path>
                    <path d="M83.1503605,-36.5800034 C184.094981,-32.2891188 279.021388,-1.0810161 362.599314,50.9501129 C335.392127,178.054195 250.606228,279.325229 141.646182,316.571174 C174.645128,276.799535 194.871762,223.183814 194.871762,164.197805 C194.871762,75.5621985 149.200603,-0.947453916 83.1503605,-36.5800034 L83.1503605,-36.5800034 Z" id="bottomleft" fill="#FD7795" opacity="0.617866848" style="mix-blend-mode: lighten;" transform="translate(222.874837, 139.995585) rotate(-270.000000) translate(-222.874837, -139.995585) "></path>
                </g>
            </g>
            <g id="Group-3">
                <g id="Group-5">
                    <g id="Group-4">
                        <g id="overlays" filter="url(#filter-1)" opacity="0.518965127" style="mix-blend-mode: soft-light;" transform="translate(201.141176, 185.500000) scale(-1, 1) translate(-201.141176, -185.500000) translate(0.141176, 0.000000)">
                            <path d="M38.9579759,315.548157 C138.775763,310.768809 232.642719,279.66642 315.38657,228.154541 C288.433411,102.237201 204.971721,1.67276843 97.4790988,-36.4065349 C129.397199,3.35619946 148.879614,56.3780727 148.879614,114.602457 C148.879614,202.937022 104.036646,279.296892 38.9579533,315.548162 L38.9579759,315.548157 Z" id="topright" fill="#88D1E2" opacity="0.139775815" style="mix-blend-mode: lighten;" transform="translate(177.172262, 139.570813) rotate(-270.000000) translate(-177.172262, -139.570813) "></path>
                            <path d="M85.424039,-36.6296374 C186.368659,-32.3387528 281.295066,-1.1306501 364.872992,50.9004789 C337.665805,178.004561 252.879907,279.275595 143.919861,316.52154 C176.918806,276.749901 197.14544,223.13418 197.14544,164.148171 C197.14544,75.5125645 151.474281,-0.997087914 85.424039,-36.6296374 L85.424039,-36.6296374 Z" id="topleft" fill="#FD7795" opacity="0.570935236" style="mix-blend-mode: lighten;" transform="translate(225.148515, 139.945951) rotate(-270.000000) translate(-225.148515, -139.945951) "></path>
                            <g id="bottoms" transform="translate(200.000000, 230.692516) scale(1, -1) translate(-200.000000, -230.692516) translate(0.000000, 90.692516)">
                                <path d="M37.8211367,314.837708 C137.638924,310.058361 231.50588,278.955971 314.249731,227.444092 C287.296572,101.526753 203.834882,0.962320127 96.3422596,-37.1169832 C128.26036,2.64575115 147.742774,55.6676244 147.742774,113.892008 C147.742774,202.226574 102.899807,278.586443 37.8211141,314.837713 L37.8211367,314.837708 Z" id="bottomright" fill="#88D1E2" opacity="0.59448596" style="mix-blend-mode: lighten;" transform="translate(176.035423, 138.860365) rotate(-270.000000) translate(-176.035423, -138.860365) "></path>
                                <path d="M83.1503605,-36.5800034 C184.094981,-32.2891188 279.021388,-1.0810161 362.599314,50.9501129 C335.392127,178.054195 250.606228,279.325229 141.646182,316.571174 C174.645128,276.799535 194.871762,223.183814 194.871762,164.197805 C194.871762,75.5621985 149.200603,-0.947453916 83.1503605,-36.5800034 L83.1503605,-36.5800034 Z" id="bottomleft" fill="#FD7795" opacity="0.656023551" style="mix-blend-mode: lighten;" transform="translate(222.874837, 139.995585) rotate(-270.000000) translate(-222.874837, -139.995585) "></path>
                            </g>
                        </g>
                        <g id="belmu-text" filter="url(#filter-2)" transform="translate(2.858824, 430.120370)">
                            <path d="M37.1318941,40.9321388 C51.3059929,42.9393523 58.7473947,51.7947062 58.7473947,62.4211309 C58.7473947,75.1728405 47.8805857,82.9655519 32.761547,82.9655519 L2.40535226,82.9655519 C1.22417737,82.9655519 0.51547243,82.2571236 0.51547243,80.9583384 L0.51547243,2.3227958 C0.51547243,1.02401056 1.22417737,0.315582253 2.40535226,0.315582253 L28.7455524,0.315582253 C42.8015336,0.315582253 54.4951651,7.1637226 54.4951651,20.6238605 C54.4951651,29.8334286 48.9436431,37.9803542 37.1318941,40.9321388 Z M28.7455524,5.62879459 L6.65758188,5.62879459 L6.65758188,38.8068539 L23.9027353,38.8068539 C41.0297713,38.8068539 48.1168207,30.3057141 48.1168207,20.9780747 C48.1168207,10.4697214 39.021774,5.62879459 28.7455524,5.62879459 Z M32.761547,77.6523396 C44.100826,77.6523396 52.3690503,71.8668417 52.3690503,62.1849881 C52.3690503,52.3850632 43.7464736,43.8839234 26.7375551,43.8839234 L6.65758188,43.8839234 L6.65758188,77.6523396 L32.761547,77.6523396 Z M130.126919,5.62879459 C131.426211,5.62879459 132.134916,4.92036628 132.134916,3.62158104 L132.134916,2.3227958 C132.134916,1.02401056 131.426211,0.315582253 130.126919,0.315582253 L83.8248631,0.315582253 C82.6436882,0.315582253 81.9349833,1.02401056 81.9349833,2.3227958 L81.9349833,80.9583384 C81.9349833,82.2571236 82.6436882,82.9655519 83.8248631,82.9655519 L130.126919,82.9655519 C131.426211,82.9655519 132.134916,82.2571236 132.134916,80.9583384 L132.134916,79.6595532 C132.134916,78.3607679 131.426211,77.6523396 130.126919,77.6523396 L88.0770927,77.6523396 L88.0770927,45.1827087 L124.575397,45.1827087 C125.874689,45.1827087 126.583394,44.4742803 126.583394,43.1754951 L126.583394,41.8767099 C126.583394,40.5779246 125.874689,39.8694963 124.575397,39.8694963 L88.0770927,39.8694963 L88.0770927,5.62879459 L130.126919,5.62879459 Z M157.566737,82.9655519 L199.616563,82.9655519 C200.797738,82.9655519 201.506443,82.2571236 201.506443,80.9583384 L201.506443,79.6595532 C201.506443,78.3607679 200.797738,77.6523396 199.616563,77.6523396 L161.818967,77.6523396 L161.818967,2.3227958 C161.818967,1.02401056 160.992144,0.315582253 159.810969,0.315582253 L157.566737,0.315582253 C156.385562,0.315582253 155.676857,1.02401056 155.676857,2.3227958 L155.676857,80.9583384 C155.676857,82.2571236 156.385562,82.9655519 157.566737,82.9655519 Z M218.551922,82.9655519 L220.914272,82.9655519 C222.095447,82.9655519 223.040387,82.2571236 223.040387,81.0764098 L229.536849,8.93479338 L261.546688,80.4860528 C261.901041,81.4306239 262.727863,81.9029095 263.790921,81.9029095 L266.035153,81.9029095 C267.09821,81.9029095 267.925033,81.4306239 268.279385,80.4860528 L300.289225,8.93479338 L306.785687,81.0764098 C306.903804,82.2571236 307.730627,82.9655519 308.911802,82.9655519 L311.274151,82.9655519 C312.573444,82.9655519 313.282149,82.2571236 313.164031,80.9583384 L305.958864,2.20472442 C305.840747,1.02401056 305.013924,0.315582253 303.83275,0.315582253 L299.58052,0.315582253 C298.517463,0.315582253 297.69064,0.787867794 297.336288,1.73243888 L264.972096,74.110198 L232.607903,1.73243888 C232.135434,0.787867794 231.426729,0.315582253 230.363671,0.315582253 L226.111442,0.315582253 C224.930267,0.315582253 224.103444,1.02401056 223.985327,2.20472442 L216.78016,80.9583384 C216.662042,82.2571236 217.370747,82.9655519 218.551922,82.9655519 Z M370.015104,84.2643372 C387.14214,84.2643372 401.788709,73.7559839 401.788709,53.0934915 L401.788709,2.3227958 C401.788709,1.02401056 400.961887,0.315582253 399.780712,0.315582253 L397.536479,0.315582253 C396.355304,0.315582253 395.646599,1.02401056 395.646599,2.3227958 L395.646599,53.0934915 C395.646599,70.2138423 383.834851,78.5969107 370.015104,78.5969107 C356.195358,78.5969107 344.383609,70.2138423 344.383609,53.0934915 L344.383609,2.3227958 C344.383609,1.02401056 343.674904,0.315582253 342.493729,0.315582253 L340.131379,0.315582253 C338.950205,0.315582253 338.2415,1.02401056 338.2415,2.3227958 L338.2415,53.0934915 C338.2415,73.7559839 352.769951,84.2643372 370.015104,84.2643372 Z" id="BELMU-Copy-16" fill="url(#linearGradient-3)"></path>
                            <path d="M37.1318941,40.9321388 C51.3059929,42.9393523 58.7473947,51.7947062 58.7473947,62.4211309 C58.7473947,75.1728405 47.8805857,82.9655519 32.761547,82.9655519 L2.40535226,82.9655519 C1.22417737,82.9655519 0.51547243,82.2571236 0.51547243,80.9583384 L0.51547243,2.3227958 C0.51547243,1.02401056 1.22417737,0.315582253 2.40535226,0.315582253 L28.7455524,0.315582253 C42.8015336,0.315582253 54.4951651,7.1637226 54.4951651,20.6238605 C54.4951651,29.8334286 48.9436431,37.9803542 37.1318941,40.9321388 Z M28.7455524,5.62879459 L6.65758188,5.62879459 L6.65758188,38.8068539 L23.9027353,38.8068539 C41.0297713,38.8068539 48.1168207,30.3057141 48.1168207,20.9780747 C48.1168207,10.4697214 39.021774,5.62879459 28.7455524,5.62879459 Z M32.761547,77.6523396 C44.100826,77.6523396 52.3690503,71.8668417 52.3690503,62.1849881 C52.3690503,52.3850632 43.7464736,43.8839234 26.7375551,43.8839234 L6.65758188,43.8839234 L6.65758188,77.6523396 L32.761547,77.6523396 Z M130.126919,5.62879459 C131.426211,5.62879459 132.134916,4.92036628 132.134916,3.62158104 L132.134916,2.3227958 C132.134916,1.02401056 131.426211,0.315582253 130.126919,0.315582253 L83.8248631,0.315582253 C82.6436882,0.315582253 81.9349833,1.02401056 81.9349833,2.3227958 L81.9349833,80.9583384 C81.9349833,82.2571236 82.6436882,82.9655519 83.8248631,82.9655519 L130.126919,82.9655519 C131.426211,82.9655519 132.134916,82.2571236 132.134916,80.9583384 L132.134916,79.6595532 C132.134916,78.3607679 131.426211,77.6523396 130.126919,77.6523396 L88.0770927,77.6523396 L88.0770927,45.1827087 L124.575397,45.1827087 C125.874689,45.1827087 126.583394,44.4742803 126.583394,43.1754951 L126.583394,41.8767099 C126.583394,40.5779246 125.874689,39.8694963 124.575397,39.8694963 L88.0770927,39.8694963 L88.0770927,5.62879459 L130.126919,5.62879459 Z M157.566737,82.9655519 L199.616563,82.9655519 C200.797738,82.9655519 201.506443,82.2571236 201.506443,80.9583384 L201.506443,79.6595532 C201.506443,78.3607679 200.797738,77.6523396 199.616563,77.6523396 L161.818967,77.6523396 L161.818967,2.3227958 C161.818967,1.02401056 160.992144,0.315582253 159.810969,0.315582253 L157.566737,0.315582253 C156.385562,0.315582253 155.676857,1.02401056 155.676857,2.3227958 L155.676857,80.9583384 C155.676857,82.2571236 156.385562,82.9655519 157.566737,82.9655519 Z M218.551922,82.9655519 L220.914272,82.9655519 C222.095447,82.9655519 223.040387,82.2571236 223.040387,81.0764098 L229.536849,8.93479338 L261.546688,80.4860528 C261.901041,81.4306239 262.727863,81.9029095 263.790921,81.9029095 L266.035153,81.9029095 C267.09821,81.9029095 267.925033,81.4306239 268.279385,80.4860528 L300.289225,8.93479338 L306.785687,81.0764098 C306.903804,82.2571236 307.730627,82.9655519 308.911802,82.9655519 L311.274151,82.9655519 C312.573444,82.9655519 313.282149,82.2571236 313.164031,80.9583384 L305.958864,2.20472442 C305.840747,1.02401056 305.013924,0.315582253 303.83275,0.315582253 L299.58052,0.315582253 C298.517463,0.315582253 297.69064,0.787867794 297.336288,1.73243888 L264.972096,74.110198 L232.607903,1.73243888 C232.135434,0.787867794 231.426729,0.315582253 230.363671,0.315582253 L226.111442,0.315582253 C224.930267,0.315582253 224.103444,1.02401056 223.985327,2.20472442 L216.78016,80.9583384 C216.662042,82.2571236 217.370747,82.9655519 218.551922,82.9655519 Z M370.015104,84.2643372 C387.14214,84.2643372 401.788709,73.7559839 401.788709,53.0934915 L401.788709,2.3227958 C401.788709,1.02401056 400.961887,0.315582253 399.780712,0.315582253 L397.536479,0.315582253 C396.355304,0.315582253 395.646599,1.02401056 395.646599,2.3227958 L395.646599,53.0934915 C395.646599,70.2138423 383.834851,78.5969107 370.015104,78.5969107 C356.195358,78.5969107 344.383609,70.2138423 344.383609,53.0934915 L344.383609,2.3227958 C344.383609,1.02401056 343.674904,0.315582253 342.493729,0.315582253 L340.131379,0.315582253 C338.950205,0.315582253 338.2415,1.02401056 338.2415,2.3227958 L338.2415,53.0934915 C338.2415,73.7559839 352.769951,84.2643372 370.015104,84.2643372 Z" id="BELMU-Copy-16" fill="#FFFFFF" opacity="0.625962409"></path>
                        </g>
                    </g>
                </g>
            </g>
        </g>
    </g>
</svg>