<?xml version="1.0" encoding="UTF-8"?>
<svg width="990px" height="301px" viewBox="0 0 990 301" version="1.1" xmlns="http://www.w3.org/2000/svg" xmlns:xlink="http://www.w3.org/1999/xlink">
    <!-- Generator: Sketch 43.2 (39069) - http://www.bohemiancoding.com/sketch -->
    <title>Group 5 Copy 3</title>
    <desc>Created with Sketch.</desc>
    <defs></defs>
    <g id="Page-1" stroke="none" stroke-width="1" fill="none" fill-rule="evenodd">
        <g id="Group-5-Copy-3">
            <g id="Group-3-Copy-2">
                <path d="M163,0.702614379 L16.0002394,0.702614379 C7.15750161,0.702614379 0,7.86285555 0,16.6954607 L0,182.699964 C0,191.529266 7.16355117,198.69281 16.0002394,198.69281 L163,198.69281 L198,198.699951 L198,0.699951172 L163,0.699951172 Z" id="Combined-Shape" fill="#000000"></path>
                <rect id="Rectangle-Copy-16" fill="#9C9C9C" x="197.823194" y="0.702614379" width="197.823194" height="197.990196"></rect>
                <rect id="Rectangle-Copy-17" fill="#BFCE1B" x="395.646388" y="0.702614379" width="197.823194" height="197.990196"></rect>
                <rect id="Rectangle-Copy-18" fill="#4D9BC1" x="593.469582" y="0.702614379" width="197.823194" height="197.990196"></rect>
                <path d="M828,0.702614379 L973.11573,0.702614379 C981.952418,0.702614379 989.11597,7.86615834 989.11597,16.6954607 L989.11597,182.699964 C989.11597,191.532569 981.958468,198.69281 973.11573,198.69281 L828,198.69281 L791,198.699951 L791,0.699951172 L828,0.699951172 Z" id="Combined-Shape" fill="#D1566C"></path>
                <g id="Group-Copy-3" transform="translate(66.941065, 42.186275)">
                    <path d="M27.1850951,82.4544314 L38.9433289,82.4544314 L38.9433289,107.480392 L0.840697719,107.480392 L0.840697719,2.31177124 L37.9014601,2.31177124 L37.9014601,27.6356601 L27.1850951,27.6356601 L27.1850951,82.4544314 Z M31.6502471,44.1706699 L32.5432776,44.1706699 C36.7107529,44.1706699 42.3666122,43.4258497 42.3666122,36.8714314 L42.3666122,2.46073529 C59.4830285,2.46073529 68.7110095,12.1433987 68.7110095,28.5294444 L68.7110095,33.5942222 C68.7110095,43.8727418 64.5435342,50.7250882 57.3992909,54.7471176 C64.9900494,58.9181111 69.7528783,66.0683856 69.7528783,76.9427614 L69.7528783,81.8585752 C69.7528783,98.0956569 59.4830285,107.480392 43.408481,107.480392 L43.408481,73.9634804 C43.408481,67.4090621 38.1991369,66.6642418 33.5851464,66.6642418 L31.6502471,66.6642418 L31.6502471,44.1706699 Z" id="B" fill="#FFFFFF"></path>
                    <path d="M407.791268,77.6875817 L434.284504,77.6875817 L434.284504,2.31177124 L407.791268,2.31177124 L407.791268,77.6875817 Z M463.307992,82.1565033 L407.791268,82.1565033 L407.791268,107.480392 L463.307992,107.480392 L463.307992,82.1565033 Z" id="L" fill="#FFFFFF"></path>
                    <path d="M375.558935,241.173725 L375.558935,216.373725 C375.558935,210.560363 377.11892,206.267073 380.238935,203.493725 C383.358951,200.720378 387.398911,199.333725 392.358935,199.333725 C397.425627,199.333725 401.438921,200.627046 404.398935,203.213725 C407.35895,205.800405 408.838935,208.960373 408.838935,212.693725 C408.838935,213.973732 408.638937,214.827057 408.238935,215.253725 C407.838933,215.680394 407.15894,215.893725 406.198935,215.893725 C404.545594,215.893725 403.665603,215.227065 403.558935,213.893725 C403.505602,213.093721 403.398936,212.320396 403.238935,211.573725 C403.078935,210.827055 402.758938,209.987063 402.278935,209.053725 C401.798933,208.120387 401.172273,207.307062 400.398935,206.613725 C399.625598,205.920389 398.545609,205.347061 397.158935,204.893725 C395.772262,204.44039 394.172278,204.213725 392.358935,204.213725 C384.678897,204.213725 380.838935,208.267018 380.838935,216.373725 L380.838935,241.173725 C380.838935,249.333766 384.785563,253.413725 392.678935,253.413725 C394.918947,253.413725 396.785595,253.107062 398.278935,252.493725 C399.772276,251.880389 400.865599,250.987065 401.558935,249.813725 C402.252272,248.640386 402.718934,247.640396 402.958935,246.813725 C403.198937,245.987055 403.398935,244.907065 403.558935,243.573725 C403.718936,242.187052 404.598927,241.493725 406.198935,241.493725 C407.15894,241.493725 407.838933,241.72039 408.238935,242.173725 C408.638937,242.627061 408.838935,243.493719 408.838935,244.773725 C408.838935,248.560411 407.332284,251.760379 404.318935,254.373725 C401.305587,256.987072 397.238961,258.293725 392.118935,258.293725 C387.212244,258.293725 383.225617,256.907073 380.158935,254.133725 C377.092253,251.360378 375.558935,247.040421 375.558935,241.173725 Z M414.838935,249.733725 C414.838935,249.093722 415.092266,248.440395 415.598935,247.773725 C416.105605,247.107055 416.652266,246.773725 417.238935,246.773725 C417.665604,246.773725 418.198932,247.120389 418.838935,247.813725 L421.078935,250.133725 C421.878939,250.987063 423.145593,251.747055 424.878935,252.413725 C426.612277,253.080395 428.625591,253.413725 430.918935,253.413725 C434.705621,253.413725 437.638925,252.467068 439.718935,250.573725 C441.798946,248.680383 442.838935,245.947077 442.838935,242.373725 C442.838935,239.973713 442.345607,237.933734 441.358935,236.253725 C440.372264,234.573717 439.10561,233.280397 437.558935,232.373725 C436.065595,231.413721 434.358945,230.560396 432.438935,229.813725 L426.678935,227.573725 C424.758926,226.827055 423.038943,225.933731 421.518935,224.893725 C419.998928,223.85372 418.745607,222.387068 417.758935,220.493725 C416.772264,218.600383 416.278935,216.347072 416.278935,213.733725 C416.278935,210.960378 416.79893,208.573735 417.838935,206.573725 C418.878941,204.573715 420.278927,203.067064 422.038935,202.053725 C423.798944,201.040387 425.598926,200.307061 427.438935,199.853725 C429.278945,199.40039 431.212259,199.173725 433.238935,199.173725 C436.492285,199.173725 439.545588,199.640387 442.398935,200.573725 C445.252283,201.507063 446.678935,202.667052 446.678935,204.053725 C446.678935,204.693729 446.452271,205.347055 445.998935,206.013725 C445.5456,206.680395 444.998939,207.013725 444.358935,207.013725 C444.038934,207.013725 443.425607,206.760395 442.518935,206.253725 C441.612264,205.747056 440.34561,205.240395 438.718935,204.733725 C437.092261,204.227056 435.238946,203.973725 433.158935,203.973725 C429.798919,203.973725 427.025613,204.693718 424.838935,206.133725 C422.652258,207.573733 421.558935,209.947042 421.558935,213.253725 C421.558935,215.54707 422.212262,217.467051 423.518935,219.013725 C424.825609,220.5604 426.465592,221.680389 428.438935,222.373725 C430.412279,223.067062 432.545591,223.893721 434.838935,224.853725 C437.13228,225.81373 439.265592,226.840387 441.238935,227.933725 C443.212279,229.027064 444.852262,230.76038 446.158935,233.133725 C447.465609,235.507071 448.118935,238.427041 448.118935,241.893725 C448.118935,247.387086 446.598951,251.507045 443.558935,254.253725 C440.51892,257.000406 436.412295,258.373725 431.238935,258.373725 C426.598912,258.373725 422.705618,257.373735 419.558935,255.373725 C416.412253,253.373715 414.838935,251.493734 414.838935,249.733725 Z M454.358935,249.733725 C454.358935,249.093722 454.612266,248.440395 455.118935,247.773725 C455.625605,247.107055 456.172266,246.773725 456.758935,246.773725 C457.185604,246.773725 457.718932,247.120389 458.358935,247.813725 L460.598935,250.133725 C461.398939,250.987063 462.665593,251.747055 464.398935,252.413725 C466.132277,253.080395 468.145591,253.413725 470.438935,253.413725 C474.225621,253.413725 477.158925,252.467068 479.238935,250.573725 C481.318946,248.680383 482.358935,245.947077 482.358935,242.373725 C482.358935,239.973713 481.865607,237.933734 480.878935,236.253725 C479.892264,234.573717 478.62561,233.280397 477.078935,232.373725 C475.585595,231.413721 473.878945,230.560396 471.958935,229.813725 L466.198935,227.573725 C464.278926,226.827055 462.558943,225.933731 461.038935,224.893725 C459.518928,223.85372 458.265607,222.387068 457.278935,220.493725 C456.292264,218.600383 455.798935,216.347072 455.798935,213.733725 C455.798935,210.960378 456.31893,208.573735 457.358935,206.573725 C458.398941,204.573715 459.798927,203.067064 461.558935,202.053725 C463.318944,201.040387 465.118926,200.307061 466.958935,199.853725 C468.798945,199.40039 470.732259,199.173725 472.758935,199.173725 C476.012285,199.173725 479.065588,199.640387 481.918935,200.573725 C484.772283,201.507063 486.198935,202.667052 486.198935,204.053725 C486.198935,204.693729 485.972271,205.347055 485.518935,206.013725 C485.0656,206.680395 484.518939,207.013725 483.878935,207.013725 C483.558934,207.013725 482.945607,206.760395 482.038935,206.253725 C481.132264,205.747056 479.86561,205.240395 478.238935,204.733725 C476.612261,204.227056 474.758946,203.973725 472.678935,203.973725 C469.318919,203.973725 466.545613,204.693718 464.358935,206.133725 C462.172258,207.573733 461.078935,209.947042 461.078935,213.253725 C461.078935,215.54707 461.732262,217.467051 463.038935,219.013725 C464.345609,220.5604 465.985592,221.680389 467.958935,222.373725 C469.932279,223.067062 472.065591,223.893721 474.358935,224.853725 C476.65228,225.81373 478.785592,226.840387 480.758935,227.933725 C482.732279,229.027064 484.372262,230.76038 485.678935,233.133725 C486.985609,235.507071 487.638935,238.427041 487.638935,241.893725 C487.638935,247.387086 486.118951,251.507045 483.078935,254.253725 C480.03892,257.000406 475.932295,258.373725 470.758935,258.373725 C466.118912,258.373725 462.225618,257.373735 459.078935,255.373725 C455.932253,253.373715 454.358935,251.493734 454.358935,249.733725 Z" id="CSS" fill="#000000"></path>
                    <path d="M265.288859,2.31177124 L206.200013,2.31177124 L206.200013,27.7846242 L265.288859,27.7846242 L265.288859,2.31177124 Z M206.200013,82.1565033 L206.200013,107.480392 L265.288859,107.480392 L265.288859,82.1565033 L206.200013,82.1565033 Z M232.544411,32.2535458 L206.200013,32.2535458 L206.200013,77.6875817 L232.544411,77.6875817 L232.544411,32.2535458 Z M237.009563,43.8727418 L237.009563,66.8132059 L257.400424,66.8132059 L257.400424,43.8727418 L237.009563,43.8727418 Z" id="E" fill="#FFFFFF"></path>
                    <path d="M644.327519,105.594771 L670.671916,105.594771 L670.671916,0.426150327 L644.178681,0.426150327 L644.327519,105.594771 Z M617.983122,84.4418758 L583.006097,0.426150327 L609.350494,0.426150327 L626.913426,45.5622582 L639.56469,14.2798072 L639.713529,71.3330392 L635.546053,84.4418758 L617.983122,84.4418758 Z M609.350494,105.594771 L583.006097,105.594771 L583.006097,11.8963824 L609.350494,75.3550686 L609.350494,105.594771 Z" id="M" fill="#FFFFFF"></path>
                    <path d="M832.519549,72.0778595 C832.519549,81.0157026 827.607882,82.058451 823.886922,82.058451 L819.570608,82.058451 L819.570608,107.084412 C820.910154,107.233376 822.398538,107.38234 823.886922,107.38234 C844.426622,107.38234 859.012785,92.4859346 859.012785,71.1840752 L859.012785,0.426150327 L832.519549,0.426150327 L832.519549,72.0778595 Z M788.761059,71.1840752 C788.761059,89.3576895 799.030909,102.913418 815.105456,106.339592 L815.105456,0.426150327 L788.761059,0.426150327 L788.761059,71.1840752 Z" id="U" fill="#FFFFFF"></path>
                </g>
            </g>
            <polygon id="Line" fill="#000000" fill-rule="nonzero" points="16 266.722502 395 266.722502 395 266 16 266"></polygon>
            <polygon id="Line-Copy" fill="#000000" fill-rule="nonzero" points="594 266.722502 973 266.722502 973 266 594 266"></polygon>
        </g>
    </g>
</svg>