<?xml version="1.0" encoding="UTF-8"?>
<svg width="990px" height="289px" viewBox="0 0 990 289" version="1.1" xmlns="http://www.w3.org/2000/svg" xmlns:xlink="http://www.w3.org/1999/xlink">
    <!-- Generator: Sketch 43.2 (39069) - http://www.bohemiancoding.com/sketch -->
    <title>Group 8</title>
    <desc>Created with Sketch.</desc>
    <defs></defs>
    <g id="Page-1" stroke="none" stroke-width="1" fill="none" fill-rule="evenodd">
        <g id="Group-8">
            <g id="Group-7">
                <g id="Group-5-Copy-3">
                    <g id="Group-3-Copy-2">
                        <path d="M163,0.702614379 L16.0002394,0.702614379 C7.15750161,0.702614379 0,7.86285555 0,16.6954607 L0,182.699964 C0,191.529266 7.16355117,198.69281 16.0002394,198.69281 L163,198.69281 L198,198.699951 L198,0.699951172 L163,0.699951172 Z" id="Combined-Shape" fill="#000000"></path>
                        <rect id="Rectangle-Copy-16" fill="#9C9C9C" x="197.823194" y="0.702614379" width="197.823194" height="197.990196"></rect>
                        <rect id="Rectangle-Copy-17" fill="#BFCE1B" x="395.646388" y="0.702614379" width="197.823194" height="197.990196"></rect>
                        <rect id="Rectangle-Copy-18" fill="#4D9BC1" x="593.469582" y="0.702614379" width="197.823194" height="197.990196"></rect>
                        <path d="M828,0.702614379 L973.11573,0.702614379 C981.952418,0.702614379 989.11597,7.86615834 989.11597,16.6954607 L989.11597,182.699964 C989.11597,191.532569 981.958468,198.69281 973.11573,198.69281 L828,198.69281 L791,198.699951 L791,0.699951172 L828,0.699951172 Z" id="Combined-Shape" fill="#D1566C"></path>
                    </g>
                    <polygon id="Line" fill="#000000" fill-rule="nonzero" points="16 259.722502 395 259.722502 395 259 16 259"></polygon>
                    <polygon id="Line-Copy" fill="#000000" fill-rule="nonzero" points="594 259.722502 973 259.722502 973 259 594 259"></polygon>
                </g>
                <g id="Group-6" transform="translate(68.000000, 45.000000)" fill-opacity="0.124292346" fill="#000000">
                    <path d="M0,105.648865 L0,9.19887636 C0,6.87355055 1.01068282,5.07903255 3.03207877,3.81526852 C5.05347473,2.5515045 7.47911349,1.91963196 10.3090678,1.91963196 L41.3878753,1.91963196 C61.6018348,1.91963196 71.708663,10.9174969 71.708663,28.9134966 C71.708663,41.0456313 67.413261,48.9819503 58.8223282,52.7226918 C63.9768879,54.6436131 67.8680168,57.3985774 70.4958315,60.9876672 C73.1236463,64.5767571 74.4375339,69.9097613 74.4375339,76.9868398 L74.4375339,80.1715092 C74.4375339,91.4948349 71.6834232,99.7597277 66.1751193,104.966435 C60.6668153,110.173143 53.2635636,112.776458 43.9651422,112.776458 L10.3090678,112.776458 C7.1759041,112.776458 4.67446413,112.068761 2.80467287,110.653345 C0.934881607,109.237929 0,107.569786 0,105.648865 Z M23.4986105,92.1519323 L38.6590044,92.1519323 C46.7445882,92.1519323 50.7873195,87.5013504 50.7873195,78.2000472 L50.7873195,75.7736324 C50.7873195,66.4723292 46.7445882,61.8217473 38.6590044,61.8217473 L23.4986105,61.8217473 L23.4986105,92.1519323 Z M23.4986105,43.6236363 L39.4170241,43.6236363 C42.1459086,43.6236363 44.2683425,42.5873654 45.7843895,40.5147924 C47.3004365,38.4422194 48.0584486,35.9905539 48.0584486,33.1597225 C48.0584486,30.3288911 47.3004365,27.8519507 45.7843895,25.7288272 C44.2683425,23.6057036 42.1459086,22.5441578 39.4170241,22.5441578 L23.4986105,22.5441578 L23.4986105,43.6236363 Z" id="B"></path>
                    <path d="M402.754923,105.497214 L402.754923,9.04722543 C402.754923,6.72189962 403.917209,4.95265653 406.241814,3.73944306 C408.566419,2.52622959 411.345797,1.91963196 414.580031,1.91963196 C417.814264,1.91963196 420.593642,2.52622959 422.918247,3.73944306 C425.242853,4.95265653 426.405138,6.72189962 426.405138,9.04722543 L426.405138,92.1519323 L460.970836,92.1519323 C463.093302,92.1519323 464.760928,93.1629284 465.973766,95.1849508 C467.186603,97.2069732 467.793013,99.6333638 467.793013,102.464195 C467.793013,105.295027 467.186603,107.721417 465.973766,109.74344 C464.760928,111.765462 463.093302,112.776458 460.970836,112.776458 L413.063991,112.776458 C410.234037,112.776458 407.808398,112.144586 405.787002,110.880822 C403.765606,109.617058 402.754923,107.82254 402.754923,105.497214 Z" id="L"></path>
                    <path d="M198.498906,105.497214 L198.498906,9.19887636 C198.498906,6.87355055 199.509589,5.07903255 201.530985,3.81526852 C203.552381,2.5515045 205.978019,1.91963196 208.807974,1.91963196 L262.778976,1.91963196 C265.103581,1.91963196 266.872276,2.93062802 268.085114,4.95265046 C269.297951,6.9746729 269.904361,9.35051363 269.904361,12.0802439 C269.904361,15.0121765 269.272684,17.4891168 268.009312,19.5111393 C266.745939,21.5331617 265.002511,22.5441578 262.778976,22.5441578 L222.14912,22.5441578 L222.14912,48.1731641 L244.889711,48.1731641 C247.113247,48.1731641 248.856675,49.0830605 250.120047,50.9028807 C251.38342,52.7227009 252.015096,54.8963424 252.015096,57.4238705 C252.015096,59.7491963 251.408687,61.8217382 250.195849,63.6415584 C248.983011,65.4613786 247.214317,66.3712751 244.889711,66.3712751 L222.14912,66.3712751 L222.14912,92.1519323 L262.778976,92.1519323 C265.002511,92.1519323 266.745939,93.1629284 268.009312,95.1849508 C269.272684,97.2069732 269.904361,99.6839136 269.904361,102.615846 C269.904361,105.345576 269.297951,107.721417 268.085114,109.74344 C266.872276,111.765462 265.103581,112.776458 262.778976,112.776458 L208.807974,112.776458 C205.978019,112.776458 203.552381,112.144586 201.530985,110.880822 C199.509589,109.617058 198.498906,107.82254 198.498906,105.497214 Z" id="E"></path>
                    <path d="M581.901532,103.577582 L581.901532,11.8287721 C581.901532,7.78472726 583.03855,4.80228889 585.31262,2.88136757 C587.586691,0.960446253 590.391336,0 593.726639,0 C598.27478,0 601.736369,0.682422338 604.111509,2.04728749 C606.486649,3.41215264 609.139691,6.67261492 612.070716,11.8287721 L627.685921,39.1259386 L643.301127,11.8287721 C646.232151,6.67261492 648.885193,3.41215264 651.260334,2.04728749 C653.635474,0.682422338 657.097063,0 661.645204,0 C664.980507,0 667.785152,0.960446253 670.059222,2.88136757 C672.333293,4.80228889 673.470311,7.78472726 673.470311,11.8287721 L673.470311,103.577582 C673.470311,105.902908 672.308025,107.697426 669.98342,108.96119 C667.658815,110.224954 664.879437,110.856826 661.645204,110.856826 C658.41097,110.856826 655.631592,110.224954 653.306987,108.96119 C650.982382,107.697426 649.820096,105.902908 649.820096,103.577582 L649.820096,46.7084849 L635.266118,71.5792366 C633.547932,74.5111691 630.920156,75.9771134 627.382713,75.9771134 C623.94634,75.9771134 621.470167,74.5111691 619.95412,71.5792366 L605.551746,45.1919756 L605.551746,103.577582 C605.551746,105.902908 604.389461,107.697426 602.064856,108.96119 C599.74025,110.224954 596.960872,110.856826 593.726639,110.856826 C590.492405,110.856826 587.713028,110.224954 585.388422,108.96119 C583.063817,107.697426 581.901532,105.902908 581.901532,103.577582 Z" id="M"></path>
                    <path d="M787.7837,75.9771134 L787.7837,7.12759347 C787.7837,4.80226766 788.920718,3.03302456 791.194789,1.8198111 C793.468859,0.606597634 796.273504,0 799.608807,0 C802.843041,0 805.622419,0.606597634 807.947024,1.8198111 C810.271629,3.03302456 811.433915,4.80226766 811.433915,7.12759347 L811.433915,75.9771134 C811.433915,86.0872256 816.285192,91.1422059 825.987893,91.1422059 C835.690593,91.1422059 840.541871,86.0872256 840.541871,75.9771134 L840.541871,7.12759347 C840.541871,4.80226766 841.678889,3.03302456 843.95296,1.8198111 C846.22703,0.606597634 849.031675,0 852.366978,0 C855.601212,0 858.380589,0.606597634 860.705195,1.8198111 C863.0298,3.03302456 864.192085,4.80226766 864.192085,7.12759347 L864.192085,75.9771134 C864.192085,88.3114503 860.70523,97.359865 853.731414,103.122629 C846.757598,108.885393 837.50985,111.766732 825.987893,111.766732 C814.364866,111.766732 805.091851,108.885393 798.16857,103.122629 C791.245289,97.359865 787.7837,88.3114503 787.7837,75.9771134 Z" id="U"></path>
                </g>
                <path d="M442.688,271.884 L442.688,246.841 C442.688,241.152972 444.175818,236.966013 447.1515,234.28 C450.127182,231.593987 454.011309,230.251 458.804,230.251 C463.649358,230.251 467.480819,231.501821 470.2985,234.0035 C473.116181,236.505179 474.525,239.520316 474.525,243.049 C474.525,244.049672 474.367002,244.734331 474.051,245.103 C473.734998,245.471669 473.23467,245.656 472.55,245.656 C471.233327,245.656 470.575,245.103006 470.575,243.997 C470.522333,242.890994 470.324835,241.850838 469.9825,240.8765 C469.640165,239.902162 469.08717,238.848839 468.3235,237.7165 C467.55983,236.584161 466.361675,235.688837 464.729,235.0305 C463.096325,234.372163 461.121345,234.043 458.804,234.043 C450.693293,234.043 446.638,238.308957 446.638,246.841 L446.638,271.884 C446.638,280.416043 450.772292,284.682 459.041,284.682 C460.937009,284.682 462.582826,284.445002 463.9785,283.971 C465.374174,283.496998 466.45383,282.95717 467.2175,282.3515 C467.98117,281.74583 468.613164,280.903172 469.1135,279.8235 C469.613836,278.743828 469.942999,277.888003 470.101,277.256 C470.259001,276.623997 470.416999,275.755006 470.575,274.649 C470.680334,273.542994 471.312328,272.99 472.471,272.99 C473.208337,272.99 473.734998,273.174331 474.051,273.543 C474.367002,273.911669 474.525,274.622661 474.525,275.676 C474.525,279.152017 473.089848,282.153987 470.2195,284.682 C467.349152,287.210013 463.465024,288.474 458.567,288.474 C453.826976,288.474 449.995515,287.131013 447.0725,284.445 C444.149485,281.758987 442.688,277.572028 442.688,271.884 Z M480.924,280.258 C480.924,279.731331 481.121498,279.231002 481.5165,278.757 C481.911502,278.282998 482.319665,278.046 482.741,278.046 C483.057002,278.046 483.530997,278.38833 484.163,279.073 L486.296,281.364 C487.086004,282.206671 488.363158,282.97033 490.1275,283.655 C491.891842,284.33967 493.932655,284.682 496.25,284.682 C500.305354,284.682 503.412656,283.681343 505.572,281.68 C507.731344,279.678657 508.811,276.729353 508.811,272.832 C508.811,269.882652 508.152673,267.433676 506.836,265.485 C505.519327,263.536324 503.886676,262.140671 501.938,261.298 C499.989324,260.455329 497.869511,259.586338 495.5785,258.691 C493.287489,257.795662 491.167676,256.913504 489.219,256.0445 C487.270324,255.175496 485.637673,253.740343 484.321,251.739 C483.004327,249.737657 482.346,247.209682 482.346,244.155 C482.346,241.41632 482.846328,239.085843 483.847,237.1635 C484.847672,235.241157 486.190658,233.792838 487.876,232.8185 C489.561342,231.844162 491.259825,231.159502 492.9715,230.7645 C494.683175,230.369498 496.513324,230.172 498.462,230.172 C501.622016,230.172 504.558153,230.632829 507.2705,231.5545 C509.982847,232.476171 511.339,233.516328 511.339,234.675 C511.339,235.149002 511.154669,235.649331 510.786,236.176 C510.417331,236.702669 509.996002,236.966 509.522,236.966 C509.258665,236.966 508.679338,236.715836 507.784,236.2155 C506.888662,235.715164 505.611508,235.214836 503.9525,234.7145 C502.293492,234.214164 500.43701,233.964 498.383,233.964 C494.95965,233.964 492.089345,234.714492 489.772,236.2155 C487.454655,237.716508 486.296,240.257649 486.296,243.839 C486.296,245.998344 486.783162,247.802159 487.7575,249.2505 C488.731838,250.698841 489.995826,251.817996 491.5495,252.608 C493.103174,253.398004 494.814824,254.108997 496.6845,254.741 C498.554176,255.373003 500.436991,256.083996 502.333,256.874 C504.229009,257.664004 505.953826,258.638328 507.5075,259.797 C509.061174,260.955672 510.325162,262.601489 511.2995,264.7345 C512.273838,266.867511 512.761,269.434985 512.761,272.437 C512.761,277.809027 511.299515,281.82482 508.3765,284.4845 C505.453485,287.14418 501.543024,288.474 496.645,288.474 C492.115644,288.474 488.363182,287.499676 485.3875,285.551 C482.411818,283.602324 480.924,281.838008 480.924,280.258 Z M519.397,280.258 C519.397,279.731331 519.594498,279.231002 519.9895,278.757 C520.384502,278.282998 520.792665,278.046 521.214,278.046 C521.530002,278.046 522.003997,278.38833 522.636,279.073 L524.769,281.364 C525.559004,282.206671 526.836158,282.97033 528.6005,283.655 C530.364842,284.33967 532.405655,284.682 534.723,284.682 C538.778354,284.682 541.885656,283.681343 544.045,281.68 C546.204344,279.678657 547.284,276.729353 547.284,272.832 C547.284,269.882652 546.625673,267.433676 545.309,265.485 C543.992327,263.536324 542.359676,262.140671 540.411,261.298 C538.462324,260.455329 536.342511,259.586338 534.0515,258.691 C531.760489,257.795662 529.640676,256.913504 527.692,256.0445 C525.743324,255.175496 524.110673,253.740343 522.794,251.739 C521.477327,249.737657 520.819,247.209682 520.819,244.155 C520.819,241.41632 521.319328,239.085843 522.32,237.1635 C523.320672,235.241157 524.663658,233.792838 526.349,232.8185 C528.034342,231.844162 529.732825,231.159502 531.4445,230.7645 C533.156175,230.369498 534.986324,230.172 536.935,230.172 C540.095016,230.172 543.031153,230.632829 545.7435,231.5545 C548.455847,232.476171 549.812,233.516328 549.812,234.675 C549.812,235.149002 549.627669,235.649331 549.259,236.176 C548.890331,236.702669 548.469002,236.966 547.995,236.966 C547.731665,236.966 547.152338,236.715836 546.257,236.2155 C545.361662,235.715164 544.084508,235.214836 542.4255,234.7145 C540.766492,234.214164 538.91001,233.964 536.856,233.964 C533.43265,233.964 530.562345,234.714492 528.245,236.2155 C525.927655,237.716508 524.769,240.257649 524.769,243.839 C524.769,245.998344 525.256162,247.802159 526.2305,249.2505 C527.204838,250.698841 528.468826,251.817996 530.0225,252.608 C531.576174,253.398004 533.287824,254.108997 535.1575,254.741 C537.027176,255.373003 538.909991,256.083996 540.806,256.874 C542.702009,257.664004 544.426826,258.638328 545.9805,259.797 C547.534174,260.955672 548.798162,262.601489 549.7725,264.7345 C550.746838,266.867511 551.234,269.434985 551.234,272.437 C551.234,277.809027 549.772515,281.82482 546.8495,284.4845 C543.926485,287.14418 540.016024,288.474 535.118,288.474 C530.588644,288.474 526.836182,287.499676 523.8605,285.551 C520.884818,283.602324 519.397,281.838008 519.397,280.258 Z" id="CSS" fill="#000000"></path>
            </g>
            <path d="M65,147.648865 L65,51.1988764 C65,48.8735505 66.0106828,47.0790325 68.0320788,45.8152685 C70.0534747,44.5515045 72.4791135,43.919632 75.3090678,43.919632 L106.387875,43.919632 C126.601835,43.919632 136.708663,52.9174969 136.708663,70.9134966 C136.708663,83.0456313 132.413261,90.9819503 123.822328,94.7226918 C128.976888,96.6436131 132.868017,99.3985774 135.495832,102.987667 C138.123646,106.576757 139.437534,111.909761 139.437534,118.98684 L139.437534,122.171509 C139.437534,133.494835 136.683423,141.759728 131.175119,146.966435 C125.666815,152.173143 118.263564,154.776458 108.965142,154.776458 L75.3090678,154.776458 C72.1759041,154.776458 69.6744641,154.068761 67.8046729,152.653345 C65.9348816,151.237929 65,149.569786 65,147.648865 Z M88.4986105,134.151932 L103.659004,134.151932 C111.744588,134.151932 115.787319,129.50135 115.787319,120.200047 L115.787319,117.773632 C115.787319,108.472329 111.744588,103.821747 103.659004,103.821747 L88.4986105,103.821747 L88.4986105,134.151932 Z M88.4986105,85.6236363 L104.417024,85.6236363 C107.145909,85.6236363 109.268343,84.5873654 110.784389,82.5147924 C112.300436,80.4422194 113.058449,77.9905539 113.058449,75.1597225 C113.058449,72.3288911 112.300436,69.8519507 110.784389,67.7288272 C109.268343,65.6057036 107.145909,64.5441578 104.417024,64.5441578 L88.4986105,64.5441578 L88.4986105,85.6236363 Z" id="B" fill="#FFFFFF"></path>
            <path d="M467.754923,147.497214 L467.754923,51.0472254 C467.754923,48.7218996 468.917209,46.9526565 471.241814,45.7394431 C473.566419,44.5262296 476.345797,43.919632 479.580031,43.919632 C482.814264,43.919632 485.593642,44.5262296 487.918247,45.7394431 C490.242853,46.9526565 491.405138,48.7218996 491.405138,51.0472254 L491.405138,134.151932 L525.970836,134.151932 C528.093302,134.151932 529.760928,135.162928 530.973766,137.184951 C532.186603,139.206973 532.793013,141.633364 532.793013,144.464195 C532.793013,147.295027 532.186603,149.721417 530.973766,151.74344 C529.760928,153.765462 528.093302,154.776458 525.970836,154.776458 L478.063991,154.776458 C475.234037,154.776458 472.808398,154.144586 470.787002,152.880822 C468.765606,151.617058 467.754923,149.82254 467.754923,147.497214 Z" id="L" fill="#FFFFFF"></path>
            <path d="M263.498906,147.497214 L263.498906,51.1988764 C263.498906,48.8735505 264.509589,47.0790325 266.530985,45.8152685 C268.552381,44.5515045 270.978019,43.919632 273.807974,43.919632 L327.778976,43.919632 C330.103581,43.919632 331.872276,44.930628 333.085114,46.9526505 C334.297951,48.9746729 334.904361,51.3505136 334.904361,54.0802439 C334.904361,57.0121765 334.272684,59.4891168 333.009312,61.5111393 C331.745939,63.5331617 330.002511,64.5441578 327.778976,64.5441578 L287.14912,64.5441578 L287.14912,90.1731641 L309.889711,90.1731641 C312.113247,90.1731641 313.856675,91.0830605 315.120047,92.9028807 C316.38342,94.7227009 317.015096,96.8963424 317.015096,99.4238705 C317.015096,101.749196 316.408687,103.821738 315.195849,105.641558 C313.983011,107.461379 312.214317,108.371275 309.889711,108.371275 L287.14912,108.371275 L287.14912,134.151932 L327.778976,134.151932 C330.002511,134.151932 331.745939,135.162928 333.009312,137.184951 C334.272684,139.206973 334.904361,141.683914 334.904361,144.615846 C334.904361,147.345576 334.297951,149.721417 333.085114,151.74344 C331.872276,153.765462 330.103581,154.776458 327.778976,154.776458 L273.807974,154.776458 C270.978019,154.776458 268.552381,154.144586 266.530985,152.880822 C264.509589,151.617058 263.498906,149.82254 263.498906,147.497214 Z" id="E" fill="#FFFFFF"></path>
            <path d="M646.901532,145.577582 L646.901532,53.8287721 C646.901532,49.7847273 648.03855,46.8022889 650.31262,44.8813676 C652.586691,42.9604463 655.391336,42 658.726639,42 C663.27478,42 666.736369,42.6824223 669.111509,44.0472875 C671.486649,45.4121526 674.139691,48.6726149 677.070716,53.8287721 L692.685921,81.1259386 L708.301127,53.8287721 C711.232151,48.6726149 713.885193,45.4121526 716.260334,44.0472875 C718.635474,42.6824223 722.097063,42 726.645204,42 C729.980507,42 732.785152,42.9604463 735.059222,44.8813676 C737.333293,46.8022889 738.470311,49.7847273 738.470311,53.8287721 L738.470311,145.577582 C738.470311,147.902908 737.308025,149.697426 734.98342,150.96119 C732.658815,152.224954 729.879437,152.856826 726.645204,152.856826 C723.41097,152.856826 720.631592,152.224954 718.306987,150.96119 C715.982382,149.697426 714.820096,147.902908 714.820096,145.577582 L714.820096,88.7084849 L700.266118,113.579237 C698.547932,116.511169 695.920156,117.977113 692.382713,117.977113 C688.94634,117.977113 686.470167,116.511169 684.95412,113.579237 L670.551746,87.1919756 L670.551746,145.577582 C670.551746,147.902908 669.389461,149.697426 667.064856,150.96119 C664.74025,152.224954 661.960872,152.856826 658.726639,152.856826 C655.492405,152.856826 652.713028,152.224954 650.388422,150.96119 C648.063817,149.697426 646.901532,147.902908 646.901532,145.577582 Z" id="M" fill="#FFFFFF"></path>
            <path d="M852.7837,117.977113 L852.7837,49.1275935 C852.7837,46.8022677 853.920718,45.0330246 856.194789,43.8198111 C858.468859,42.6065976 861.273504,42 864.608807,42 C867.843041,42 870.622419,42.6065976 872.947024,43.8198111 C875.271629,45.0330246 876.433915,46.8022677 876.433915,49.1275935 L876.433915,117.977113 C876.433915,128.087226 881.285192,133.142206 890.987893,133.142206 C900.690593,133.142206 905.541871,128.087226 905.541871,117.977113 L905.541871,49.1275935 C905.541871,46.8022677 906.678889,45.0330246 908.95296,43.8198111 C911.22703,42.6065976 914.031675,42 917.366978,42 C920.601212,42 923.380589,42.6065976 925.705195,43.8198111 C928.0298,45.0330246 929.192085,46.8022677 929.192085,49.1275935 L929.192085,117.977113 C929.192085,130.31145 925.70523,139.359865 918.731414,145.122629 C911.757598,150.885393 902.50985,153.766732 890.987893,153.766732 C879.364866,153.766732 870.091851,150.885393 863.16857,145.122629 C856.245289,139.359865 852.7837,130.31145 852.7837,117.977113 Z" id="U" fill="#FFFFFF"></path>
        </g>
    </g>
</svg>