<?xml version="1.0" encoding="UTF-8"?>
<svg width="991px" height="577px" viewBox="0 0 991 577" version="1.1" xmlns="http://www.w3.org/2000/svg" xmlns:xlink="http://www.w3.org/1999/xlink">
    <!-- Generator: Sketch 43.2 (39069) - http://www.bohemiancoding.com/sketch -->
    <title>Group 5 Copy 3</title>
    <desc>Created with Sketch.</desc>
    <defs></defs>
    <g id="Page-1" stroke="none" stroke-width="1" fill="none" fill-rule="evenodd">
        <g id="Group-5-Copy-3" transform="translate(0.000000, -1.000000)">
            <g id="Group-3-Copy-2">
                <g id="Group-2-Copy-2" transform="translate(494.892157, 96.752218) rotate(-90.000000) translate(-494.892157, -96.752218) translate(398.392157, -321.247782)">
                    <path d="M0.58404943,41.4836601 L0.58404943,1.60277778 L12.2273574,1.60277778 C20.1402852,1.60277778 25.1706464,4.20493464 25.1706464,11.6719935 L25.1706464,12.2376797 C25.1706464,17.3288562 22.853289,20.100719 18.7837833,21.3452288 C23.0793726,22.6463072 25.5097719,25.4181699 25.5097719,30.3962092 L25.5097719,30.8487582 C25.5097719,38.4855229 20.5359316,41.4836601 12.6230038,41.4836601 L0.58404943,41.4836601 Z M22.2315589,29.9436601 C22.2315589,24.9656209 18.6142205,22.7028758 13.4142966,22.7028758 L3.91878327,22.7028758 L3.91878327,38.2592484 L12.5664829,38.2592484 C18.3881369,38.2592484 22.2315589,36.3924837 22.2315589,30.565915 L22.2315589,29.9436601 Z M3.91878327,4.88375817 L3.91878327,19.9310131 L13.6403802,19.9310131 C18.7837833,19.9310131 21.8359125,17.668268 21.8359125,12.6336601 L21.8359125,11.9548366 C21.8359125,6.41111111 17.9924905,4.88375817 12.1708365,4.88375817 L3.91878327,4.88375817 Z M60.948384,41.4836601 L57.4440875,41.4836601 L53.9963118,31.3578758 L36.1357034,31.3578758 L32.5748859,41.4836601 L29.1271103,41.4836601 L43.2573384,1.60277778 L47.0442395,1.60277778 L60.948384,41.4836601 Z M45.1790494,5.33630719 L37.040038,28.4728758 L53.0919772,28.4728758 L45.1790494,5.33630719 Z M88.1914639,30.9053268 C88.1914639,36.2793464 83.8393536,38.8815033 78.3568251,38.8815033 C72.8177757,38.8815033 68.4091445,35.430817 68.4091445,28.0203268 L65.1309316,28.0203268 C65.1309316,37.3541503 71.0091065,42.0493464 78.3568251,42.0493464 C85.7610646,42.0493464 91.5261977,38.2592484 91.5261977,30.8487582 C91.5261977,15.9712092 69.0308745,23.890817 69.0308745,11.7285621 C69.0308745,6.52424837 73.1569011,4.14836601 78.3568251,4.14836601 C83.556749,4.14836601 87.7958175,7.42934641 87.7958175,14.2741503 L91.1305513,14.2741503 C91.1305513,5.27973856 85.4784601,0.923954248 78.4698669,0.923954248 C71.1786692,0.923954248 65.7526616,4.54434641 65.7526616,11.7285621 C65.7526616,27.0586601 88.1914639,19.2521895 88.1914639,30.9053268 Z M102.434734,22.8160131 L115.886711,22.8160131 L115.886711,19.8178758 L102.434734,19.8178758 L102.434734,4.88375817 L121.199677,4.88375817 L121.199677,1.60277778 L99.1,1.60277778 L99.1,41.4836601 L121.199677,41.4836601 L121.199677,38.2592484 L102.434734,38.2592484 L102.434734,22.8160131 Z" id="BASE" fill="#9C9C9C"></path>
                    <path d="M3.91878327,226.463072 L17.3707605,226.463072 L17.3707605,223.464935 L3.91878327,223.464935 L3.91878327,208.530817 L22.6837262,208.530817 L22.6837262,205.249837 L0.58404943,205.249837 L0.58404943,245.130719 L22.6837262,245.130719 L22.6837262,241.906307 L3.91878327,241.906307 L3.91878327,226.463072 Z M56.8223574,245.130719 L56.8223574,205.53268 L53.4876236,205.53268 L53.4876236,238.90817 L32.9705323,205.249837 L29.974924,205.249837 L29.974924,245.130719 L33.3096578,245.130719 L33.3096578,211.585523 L53.7702281,245.130719 L56.8223574,245.130719 Z M91.0175095,218.090915 C90.8479468,210.171307 85.4219392,204.571013 77.6785741,204.571013 C69.8221673,204.571013 64.3961597,210.284444 64.3961597,218.430327 L64.3961597,231.837092 C64.3961597,239.982974 69.8221673,245.696405 77.6785741,245.696405 C85.534981,245.696405 91.0175095,239.982974 91.0175095,231.837092 L91.0175095,226.632778 L77.7350951,226.632778 L77.7350951,229.630915 L87.6827757,229.630915 L87.6827757,231.89366 C87.6827757,238.399052 83.4437072,242.415425 77.6785741,242.415425 C71.969962,242.415425 67.7308935,238.399052 67.7308935,231.89366 L67.7308935,219.278856 C67.7308935,211.924935 71.6308365,207.795425 77.6785741,207.795425 C83.3871863,207.795425 87.5697338,211.755229 87.6827757,218.090915 L91.0175095,218.090915 Z M98.5913118,205.249837 L98.5913118,245.130719 L101.926046,245.130719 L101.926046,205.249837 L98.5913118,205.249837 Z M137.4777,245.130719 L137.4777,205.53268 L134.142966,205.53268 L134.142966,238.90817 L113.625875,205.249837 L110.630266,205.249837 L110.630266,245.130719 L113.965,245.130719 L113.965,211.585523 L134.42557,245.130719 L137.4777,245.130719 Z M149.516654,226.463072 L162.968631,226.463072 L162.968631,223.464935 L149.516654,223.464935 L149.516654,208.530817 L168.281597,208.530817 L168.281597,205.249837 L146.18192,205.249837 L146.18192,245.130719 L168.281597,245.130719 L168.281597,241.906307 L149.516654,241.906307 L149.516654,226.463072 Z" id="Engine-Copy" fill="#000000"></path>
                    <path d="M0.58404943,401.354412 L0.58404943,441.235294 L21.4402662,441.235294 L21.4402662,438.010882 L3.91878327,438.010882 L3.91878327,401.354412 L0.58404943,401.354412 Z M55.7484601,441.235294 L52.2441635,441.235294 L48.7963878,431.10951 L30.9357795,431.10951 L27.374962,441.235294 L23.9271863,441.235294 L38.0574144,401.354412 L41.8443156,401.354412 L55.7484601,441.235294 Z M39.9791255,405.087941 L31.8401141,428.22451 L47.8920532,428.22451 L39.9791255,405.087941 Z M57.6701711,401.354412 L71.291711,425.792059 L71.291711,441.235294 L74.6264449,441.235294 L74.6264449,425.792059 L88.3045057,401.354412 L84.7436882,401.354412 L72.9308175,422.511078 L61.2875095,401.354412 L57.6701711,401.354412 Z M105.825989,441.687843 C97.9130608,441.687843 92.4870532,436.03098 92.4870532,427.828529 L92.4870532,414.648039 C92.4870532,406.445588 97.9130608,400.732157 105.825989,400.732157 C113.625875,400.732157 119.164924,406.445588 119.164924,414.648039 L119.164924,427.828529 C119.164924,436.03098 113.625875,441.687843 105.825989,441.687843 Z M105.825989,438.463431 C111.365038,438.463431 115.83019,434.616765 115.83019,427.941667 L115.83019,414.534902 C115.83019,408.02951 111.591122,403.956569 105.825989,403.956569 C100.230418,403.956569 95.8217871,407.859804 95.8217871,414.478333 L95.8217871,427.941667 C95.8217871,434.447059 100.004335,438.463431 105.825989,438.463431 Z M126.173517,401.354412 L126.173517,427.828529 C126.173517,436.03098 131.656046,441.687843 139.512452,441.687843 C147.312338,441.687843 152.851388,436.03098 152.851388,427.828529 L152.851388,401.354412 L149.516654,401.354412 L149.516654,427.941667 C149.516654,434.447059 145.221065,438.463431 139.512452,438.463431 C133.916882,438.463431 129.508251,434.616765 129.508251,427.941667 L129.508251,401.354412 L126.173517,401.354412 Z M172.80327,441.235294 L172.80327,404.635392 L183.881369,404.635392 L183.881369,401.354412 L158.446958,401.354412 L158.446958,404.635392 L169.468536,404.635392 L169.468536,441.235294 L172.80327,441.235294 Z" id="Layout-Copy" fill="#BFCE1B"></path>
                    <path d="M18.4446578,627.232941 L30.3705703,601.267941 L30.3705703,633.568627 L33.7053042,633.568627 L33.7053042,593.687745 L30.5401331,593.687745 L17.0881559,623.046863 L3.74922053,593.687745 L0.58404943,593.687745 L0.58404943,633.568627 L3.91878327,633.568627 L3.91878327,601.32451 L15.7881749,627.232941 L18.4446578,627.232941 Z M54.6180418,634.021176 C46.7051141,634.021176 41.2791065,628.364314 41.2791065,620.161863 L41.2791065,606.981373 C41.2791065,598.778922 46.7051141,593.06549 54.6180418,593.06549 C62.4179278,593.06549 67.9569772,598.778922 67.9569772,606.981373 L67.9569772,620.161863 C67.9569772,628.364314 62.4179278,634.021176 54.6180418,634.021176 Z M54.6180418,630.796765 C60.1570913,630.796765 64.6222433,626.950098 64.6222433,620.275 L64.6222433,606.868235 C64.6222433,600.362843 60.3831749,596.289902 54.6180418,596.289902 C49.0224715,596.289902 44.6138403,600.193137 44.6138403,606.811667 L44.6138403,620.275 C44.6138403,626.780392 48.7963878,630.796765 54.6180418,630.796765 Z M88.0784221,633.568627 L75.5307795,633.568627 L75.5307795,593.687745 L88.0784221,593.687745 C95.9348289,593.687745 101.417357,598.609216 101.417357,608.33902 L101.417357,618.747647 C101.417357,628.420882 95.9348289,633.568627 88.0784221,633.568627 Z M78.8655133,630.344216 L87.7392966,630.344216 C93.7870342,630.344216 98.0826236,626.723824 98.0826236,618.068824 L98.0826236,608.961275 C98.0826236,600.362843 93.7870342,596.968725 87.7392966,596.968725 L78.8655133,596.968725 L78.8655133,630.344216 Z M108.425951,593.687745 L108.425951,620.161863 C108.425951,628.364314 113.908479,634.021176 121.764886,634.021176 C129.564772,634.021176 135.103821,628.364314 135.103821,620.161863 L135.103821,593.687745 L131.769087,593.687745 L131.769087,620.275 C131.769087,626.780392 127.473498,630.796765 121.764886,630.796765 C116.169316,630.796765 111.760684,626.950098 111.760684,620.275 L111.760684,593.687745 L108.425951,593.687745 Z M143.242833,593.687745 L143.242833,633.568627 L164.099049,633.568627 L164.099049,630.344216 L146.577567,630.344216 L146.577567,593.687745 L143.242833,593.687745 Z M173.311958,614.90098 L186.763935,614.90098 L186.763935,611.902843 L173.311958,611.902843 L173.311958,596.968725 L192.076901,596.968725 L192.076901,593.687745 L169.977224,593.687745 L169.977224,633.568627 L192.076901,633.568627 L192.076901,630.344216 L173.311958,630.344216 L173.311958,614.90098 Z" id="Module-Copy" fill="#4D9BC1"></path>
                    <path d="M0.0188403042,795.449183 L0.0188403042,821.923301 C0.0188403042,830.125752 5.50136882,835.782614 13.3577757,835.782614 C21.1576616,835.782614 26.696711,830.125752 26.696711,821.923301 L26.696711,795.449183 L23.3619772,795.449183 L23.3619772,822.036438 C23.3619772,828.54183 19.0663878,832.558203 13.3577757,832.558203 C7.76220532,832.558203 3.35357414,828.711536 3.35357414,822.036438 L3.35357414,795.449183 L0.0188403042,795.449183 Z M46.6485932,835.330065 L46.6485932,798.730163 L57.726692,798.730163 L57.726692,795.449183 L32.2922814,795.449183 L32.2922814,798.730163 L43.3138593,798.730163 L43.3138593,835.330065 L46.6485932,835.330065 Z M63.8874715,795.449183 L63.8874715,835.330065 L67.2222053,835.330065 L67.2222053,795.449183 L63.8874715,795.449183 Z M75.9264259,795.449183 L75.9264259,835.330065 L96.7826426,835.330065 L96.7826426,832.105654 L79.2611597,832.105654 L79.2611597,795.449183 L75.9264259,795.449183 Z M102.660817,795.449183 L102.660817,835.330065 L105.995551,835.330065 L105.995551,795.449183 L102.660817,795.449183 Z M126.512643,835.330065 L126.512643,798.730163 L137.590741,798.730163 L137.590741,795.449183 L112.156331,795.449183 L112.156331,798.730163 L123.177909,798.730163 L123.177909,835.330065 L126.512643,835.330065 Z M140.360266,795.449183 L153.981806,819.88683 L153.981806,835.330065 L157.31654,835.330065 L157.31654,819.88683 L170.994601,795.449183 L167.433783,795.449183 L155.620913,816.60585 L143.977605,795.449183 L140.360266,795.449183 Z" id="Utility-Copy" fill="#D1566E"></path>
                </g>
                <rect id="Rectangle-Copy-15" fill="#9C9C9C" x="0" y="236.702614" width="197.823194" height="197.990196"></rect>
                <rect id="Rectangle-Copy-16" fill="#000000" x="197.823194" y="236.702614" width="197.823194" height="197.990196"></rect>
                <rect id="Rectangle-Copy-17" fill="#BFCE1B" x="395.646388" y="236.702614" width="197.823194" height="197.990196"></rect>
                <rect id="Rectangle-Copy-18" fill="#4D9BC1" x="593.469582" y="236.702614" width="197.823194" height="197.990196"></rect>
                <rect id="Rectangle-Copy-19" fill="#D1566D" x="791.292776" y="236.702614" width="197.823194" height="197.990196"></rect>
                <g id="Group-Copy-3" transform="translate(66.941065, 278.186275)">
                    <path d="M27.1850951,82.4544314 L38.9433289,82.4544314 L38.9433289,107.480392 L0.840697719,107.480392 L0.840697719,2.31177124 L37.9014601,2.31177124 L37.9014601,27.6356601 L27.1850951,27.6356601 L27.1850951,82.4544314 Z M31.6502471,44.1706699 L32.5432776,44.1706699 C36.7107529,44.1706699 42.3666122,43.4258497 42.3666122,36.8714314 L42.3666122,2.46073529 C59.4830285,2.46073529 68.7110095,12.1433987 68.7110095,28.5294444 L68.7110095,33.5942222 C68.7110095,43.8727418 64.5435342,50.7250882 57.3992909,54.7471176 C64.9900494,58.9181111 69.7528783,66.0683856 69.7528783,76.9427614 L69.7528783,81.8585752 C69.7528783,98.0956569 59.4830285,107.480392 43.408481,107.480392 L43.408481,73.9634804 C43.408481,67.4090621 38.1991369,66.6642418 33.5851464,66.6642418 L31.6502471,66.6642418 L31.6502471,44.1706699 Z" id="B" fill="#FFFFFF"></path>
                    <path d="M407.791268,77.6875817 L434.284504,77.6875817 L434.284504,2.31177124 L407.791268,2.31177124 L407.791268,77.6875817 Z M463.307992,82.1565033 L407.791268,82.1565033 L407.791268,107.480392 L463.307992,107.480392 L463.307992,82.1565033 Z" id="L" fill="#FFFFFF"></path>
                    <path d="M796.566597,236.394637 C796.566597,244.189794 792.157966,251.028941 783.561135,251.028941 C775.184736,251.028941 770.555673,244.55749 770.555673,237.277108 L770.555673,219.701235 C770.555673,211.097147 776.286894,206.022941 783.561135,206.022941 C791.79058,206.022941 796.49312,212.347314 796.566597,220.436627 L800.901751,220.436627 C800.901751,209.552824 794.068373,201.831206 783.561135,201.831206 C773.274329,201.831206 766.220519,209.185127 766.220519,219.848314 L766.220519,237.203569 C766.220519,247.793216 773.274329,255.220676 783.561135,255.220676 C794.14185,255.220676 800.901751,247.42552 800.901751,236.394637 L796.566597,236.394637 Z M838.52207,240.80699 C838.52207,247.793216 832.864327,251.17602 825.73704,251.17602 C818.536276,251.17602 812.805055,246.690127 812.805055,237.05649 L808.543378,237.05649 C808.543378,249.190461 816.185006,255.294216 825.73704,255.294216 C835.362551,255.294216 842.857224,250.367088 842.857224,240.733451 C842.857224,221.392637 813.613304,231.688127 813.613304,215.877196 C813.613304,209.111588 818.977139,206.022941 825.73704,206.022941 C832.496941,206.022941 838.00773,210.288216 838.00773,219.186461 L842.342884,219.186461 C842.342884,207.493725 834.995165,201.831206 825.883994,201.831206 C816.405437,201.831206 809.351627,206.537716 809.351627,215.877196 C809.351627,235.806324 838.52207,225.657912 838.52207,240.80699 Z M881.212316,240.80699 C881.212316,247.793216 875.554572,251.17602 868.427285,251.17602 C861.226521,251.17602 855.4953,246.690127 855.4953,237.05649 L851.233624,237.05649 C851.233624,249.190461 858.875251,255.294216 868.427285,255.294216 C878.052797,255.294216 885.54747,250.367088 885.54747,240.733451 C885.54747,221.392637 856.303549,231.688127 856.303549,215.877196 C856.303549,209.111588 861.667384,206.022941 868.427285,206.022941 C875.187186,206.022941 880.697975,210.288216 880.697975,219.186461 L885.033129,219.186461 C885.033129,207.493725 877.685411,201.831206 868.57424,201.831206 C859.095683,201.831206 852.041873,206.537716 852.041873,215.877196 C852.041873,235.806324 881.212316,225.657912 881.212316,240.80699 Z" id="CSS" fill="#000000"></path>
                    <path d="M265.288859,2.31177124 L206.200013,2.31177124 L206.200013,27.7846242 L265.288859,27.7846242 L265.288859,2.31177124 Z M206.200013,82.1565033 L206.200013,107.480392 L265.288859,107.480392 L265.288859,82.1565033 L206.200013,82.1565033 Z M232.544411,32.2535458 L206.200013,32.2535458 L206.200013,77.6875817 L232.544411,77.6875817 L232.544411,32.2535458 Z M237.009563,43.8727418 L237.009563,66.8132059 L257.400424,66.8132059 L257.400424,43.8727418 L237.009563,43.8727418 Z" id="E" fill="#FFFFFF"></path>
                    <path d="M644.327519,105.594771 L670.671916,105.594771 L670.671916,0.426150327 L644.178681,0.426150327 L644.327519,105.594771 Z M617.983122,84.4418758 L583.006097,0.426150327 L609.350494,0.426150327 L626.913426,45.5622582 L639.56469,14.2798072 L639.713529,71.3330392 L635.546053,84.4418758 L617.983122,84.4418758 Z M609.350494,105.594771 L583.006097,105.594771 L583.006097,11.8963824 L609.350494,75.3550686 L609.350494,105.594771 Z" id="M" fill="#FFFFFF"></path>
                    <path d="M832.519549,72.0778595 C832.519549,81.0157026 827.607882,82.058451 823.886922,82.058451 L819.570608,82.058451 L819.570608,107.084412 C820.910154,107.233376 822.398538,107.38234 823.886922,107.38234 C844.426622,107.38234 859.012785,92.4859346 859.012785,71.1840752 L859.012785,0.426150327 L832.519549,0.426150327 L832.519549,72.0778595 Z M788.761059,71.1840752 C788.761059,89.3576895 799.030909,102.913418 815.105456,106.339592 L815.105456,0.426150327 L788.761059,0.426150327 L788.761059,71.1840752 Z" id="U" fill="#FFFFFF"></path>
                </g>
            </g>
            <polygon id="Line" fill="#979797" fill-rule="nonzero" points="0.942015209 577.05719 990.074289 577.05719 990.074289 575.171569 0.942015209 575.171569"></polygon>
        </g>
    </g>
</svg>