<?xml version="1.0" encoding="UTF-8"?>
<svg width="990px" height="289px" viewBox="0 0 990 289" version="1.1" xmlns="http://www.w3.org/2000/svg" xmlns:xlink="http://www.w3.org/1999/xlink">
    <!-- Generator: Sketch 43.2 (39069) - http://www.bohemiancoding.com/sketch -->
    <title>belmu</title>
    <desc>Created with Sketch.</desc>
    <defs></defs>
    <g id="Page-1" stroke="none" stroke-width="1" fill="none" fill-rule="evenodd">
        <g id="belmu">
            <g id="css" transform="translate(16.000000, 0.000000)">
                <g id="Group-7">
                    <g id="Group-5-Copy-3">
                        <g id="Group-3-Copy-2" transform="translate(775.000000, 0.000000)"></g>
                        <polygon id="Line" fill="#000000" fill-rule="nonzero" points="0 259.722502 379 259.722502 379 259 0 259"></polygon>
                        <polygon id="Line-Copy" fill="#000000" fill-rule="nonzero" points="578 259.722502 957 259.722502 957 259 578 259"></polygon>
                    </g>
                    <g id="Group-6" transform="translate(839.000000, 45.000000)"></g>
                    <path d="M426.688,271.884 L426.688,246.841 C426.688,241.152972 428.175818,236.966013 431.1515,234.28 C434.127182,231.593987 438.011309,230.251 442.804,230.251 C447.649358,230.251 451.480819,231.501821 454.2985,234.0035 C457.116181,236.505179 458.525,239.520316 458.525,243.049 C458.525,244.049672 458.367002,244.734331 458.051,245.103 C457.734998,245.471669 457.23467,245.656 456.55,245.656 C455.233327,245.656 454.575,245.103006 454.575,243.997 C454.522333,242.890994 454.324835,241.850838 453.9825,240.8765 C453.640165,239.902162 453.08717,238.848839 452.3235,237.7165 C451.55983,236.584161 450.361675,235.688837 448.729,235.0305 C447.096325,234.372163 445.121345,234.043 442.804,234.043 C434.693293,234.043 430.638,238.308957 430.638,246.841 L430.638,271.884 C430.638,280.416043 434.772292,284.682 443.041,284.682 C444.937009,284.682 446.582826,284.445002 447.9785,283.971 C449.374174,283.496998 450.45383,282.95717 451.2175,282.3515 C451.98117,281.74583 452.613164,280.903172 453.1135,279.8235 C453.613836,278.743828 453.942999,277.888003 454.101,277.256 C454.259001,276.623997 454.416999,275.755006 454.575,274.649 C454.680334,273.542994 455.312328,272.99 456.471,272.99 C457.208337,272.99 457.734998,273.174331 458.051,273.543 C458.367002,273.911669 458.525,274.622661 458.525,275.676 C458.525,279.152017 457.089848,282.153987 454.2195,284.682 C451.349152,287.210013 447.465024,288.474 442.567,288.474 C437.826976,288.474 433.995515,287.131013 431.0725,284.445 C428.149485,281.758987 426.688,277.572028 426.688,271.884 Z M464.924,280.258 C464.924,279.731331 465.121498,279.231002 465.5165,278.757 C465.911502,278.282998 466.319665,278.046 466.741,278.046 C467.057002,278.046 467.530997,278.38833 468.163,279.073 L470.296,281.364 C471.086004,282.206671 472.363158,282.97033 474.1275,283.655 C475.891842,284.33967 477.932655,284.682 480.25,284.682 C484.305354,284.682 487.412656,283.681343 489.572,281.68 C491.731344,279.678657 492.811,276.729353 492.811,272.832 C492.811,269.882652 492.152673,267.433676 490.836,265.485 C489.519327,263.536324 487.886676,262.140671 485.938,261.298 C483.989324,260.455329 481.869511,259.586338 479.5785,258.691 C477.287489,257.795662 475.167676,256.913504 473.219,256.0445 C471.270324,255.175496 469.637673,253.740343 468.321,251.739 C467.004327,249.737657 466.346,247.209682 466.346,244.155 C466.346,241.41632 466.846328,239.085843 467.847,237.1635 C468.847672,235.241157 470.190658,233.792838 471.876,232.8185 C473.561342,231.844162 475.259825,231.159502 476.9715,230.7645 C478.683175,230.369498 480.513324,230.172 482.462,230.172 C485.622016,230.172 488.558153,230.632829 491.2705,231.5545 C493.982847,232.476171 495.339,233.516328 495.339,234.675 C495.339,235.149002 495.154669,235.649331 494.786,236.176 C494.417331,236.702669 493.996002,236.966 493.522,236.966 C493.258665,236.966 492.679338,236.715836 491.784,236.2155 C490.888662,235.715164 489.611508,235.214836 487.9525,234.7145 C486.293492,234.214164 484.43701,233.964 482.383,233.964 C478.95965,233.964 476.089345,234.714492 473.772,236.2155 C471.454655,237.716508 470.296,240.257649 470.296,243.839 C470.296,245.998344 470.783162,247.802159 471.7575,249.2505 C472.731838,250.698841 473.995826,251.817996 475.5495,252.608 C477.103174,253.398004 478.814824,254.108997 480.6845,254.741 C482.554176,255.373003 484.436991,256.083996 486.333,256.874 C488.229009,257.664004 489.953826,258.638328 491.5075,259.797 C493.061174,260.955672 494.325162,262.601489 495.2995,264.7345 C496.273838,266.867511 496.761,269.434985 496.761,272.437 C496.761,277.809027 495.299515,281.82482 492.3765,284.4845 C489.453485,287.14418 485.543024,288.474 480.645,288.474 C476.115644,288.474 472.363182,287.499676 469.3875,285.551 C466.411818,283.602324 464.924,281.838008 464.924,280.258 Z M503.397,280.258 C503.397,279.731331 503.594498,279.231002 503.9895,278.757 C504.384502,278.282998 504.792665,278.046 505.214,278.046 C505.530002,278.046 506.003997,278.38833 506.636,279.073 L508.769,281.364 C509.559004,282.206671 510.836158,282.97033 512.6005,283.655 C514.364842,284.33967 516.405655,284.682 518.723,284.682 C522.778354,284.682 525.885656,283.681343 528.045,281.68 C530.204344,279.678657 531.284,276.729353 531.284,272.832 C531.284,269.882652 530.625673,267.433676 529.309,265.485 C527.992327,263.536324 526.359676,262.140671 524.411,261.298 C522.462324,260.455329 520.342511,259.586338 518.0515,258.691 C515.760489,257.795662 513.640676,256.913504 511.692,256.0445 C509.743324,255.175496 508.110673,253.740343 506.794,251.739 C505.477327,249.737657 504.819,247.209682 504.819,244.155 C504.819,241.41632 505.319328,239.085843 506.32,237.1635 C507.320672,235.241157 508.663658,233.792838 510.349,232.8185 C512.034342,231.844162 513.732825,231.159502 515.4445,230.7645 C517.156175,230.369498 518.986324,230.172 520.935,230.172 C524.095016,230.172 527.031153,230.632829 529.7435,231.5545 C532.455847,232.476171 533.812,233.516328 533.812,234.675 C533.812,235.149002 533.627669,235.649331 533.259,236.176 C532.890331,236.702669 532.469002,236.966 531.995,236.966 C531.731665,236.966 531.152338,236.715836 530.257,236.2155 C529.361662,235.715164 528.084508,235.214836 526.4255,234.7145 C524.766492,234.214164 522.91001,233.964 520.856,233.964 C517.43265,233.964 514.562345,234.714492 512.245,236.2155 C509.927655,237.716508 508.769,240.257649 508.769,243.839 C508.769,245.998344 509.256162,247.802159 510.2305,249.2505 C511.204838,250.698841 512.468826,251.817996 514.0225,252.608 C515.576174,253.398004 517.287824,254.108997 519.1575,254.741 C521.027176,255.373003 522.909991,256.083996 524.806,256.874 C526.702009,257.664004 528.426826,258.638328 529.9805,259.797 C531.534174,260.955672 532.798162,262.601489 533.7725,264.7345 C534.746838,266.867511 535.234,269.434985 535.234,272.437 C535.234,277.809027 533.772515,281.82482 530.8495,284.4845 C527.926485,287.14418 524.016024,288.474 519.118,288.474 C514.588644,288.474 510.836182,287.499676 507.8605,285.551 C504.884818,283.602324 503.397,281.838008 503.397,280.258 Z" id="CSS" fill="#000000"></path>
                </g>
            </g>
            <g id="U" transform="translate(791.000000, 0.000000)">
                <path d="M37,0.702614379 L182.11573,0.702614379 C190.952418,0.702614379 198.11597,7.86615834 198.11597,16.6954607 L198.11597,182.699964 C198.11597,191.532569 190.958468,198.69281 182.11573,198.69281 L37,198.69281 L0,198.699951 L0,0.699951172 L37,0.699951172 Z" id="Combined-Shape" fill="#D1566C"></path>
                <path d="M64.7837002,120.977113 L64.7837002,52.1275935 C64.7837002,49.8022677 65.9207184,48.0330246 68.1947888,46.8198111 C70.4688593,45.6065976 73.2735041,45 76.6088074,45 C79.843041,45 82.6224187,45.6065976 84.9470241,46.8198111 C87.2716294,48.0330246 88.4339147,49.8022677 88.4339147,52.1275935 L88.4339147,120.977113 C88.4339147,131.087226 93.2851922,136.142206 102.987893,136.142206 C112.690593,136.142206 117.541871,131.087226 117.541871,120.977113 L117.541871,52.1275935 C117.541871,49.8022677 118.678889,48.0330246 120.95296,46.8198111 C123.22703,45.6065976 126.031675,45 129.366978,45 C132.601212,45 135.380589,45.6065976 137.705195,46.8198111 C140.0298,48.0330246 141.192085,49.8022677 141.192085,52.1275935 L141.192085,120.977113 C141.192085,133.31145 137.70523,142.359865 130.731414,148.122629 C123.757598,153.885393 114.50985,156.766732 102.987893,156.766732 C91.364866,156.766732 82.0918512,153.885393 75.16857,148.122629 C68.2452889,142.359865 64.7837002,133.31145 64.7837002,120.977113 Z" fill-opacity="0.124292346" fill="#000000"></path>
                <path d="M61.7837002,117.977113 L61.7837002,49.1275935 C61.7837002,46.8022677 62.9207184,45.0330246 65.1947888,43.8198111 C67.4688593,42.6065976 70.2735041,42 73.6088074,42 C76.843041,42 79.6224187,42.6065976 81.9470241,43.8198111 C84.2716294,45.0330246 85.4339147,46.8022677 85.4339147,49.1275935 L85.4339147,117.977113 C85.4339147,128.087226 90.2851922,133.142206 99.9878928,133.142206 C109.690593,133.142206 114.541871,128.087226 114.541871,117.977113 L114.541871,49.1275935 C114.541871,46.8022677 115.678889,45.0330246 117.95296,43.8198111 C120.22703,42.6065976 123.031675,42 126.366978,42 C129.601212,42 132.380589,42.6065976 134.705195,43.8198111 C137.0298,45.0330246 138.192085,46.8022677 138.192085,49.1275935 L138.192085,117.977113 C138.192085,130.31145 134.70523,139.359865 127.731414,145.122629 C120.757598,150.885393 111.50985,153.766732 99.9878928,153.766732 C88.364866,153.766732 79.0918512,150.885393 72.16857,145.122629 C65.2452889,139.359865 61.7837002,130.31145 61.7837002,117.977113 Z" fill="#FFFFFF"></path>
            </g>
            <g id="M" transform="translate(593.000000, 0.000000)">
                <rect id="Rectangle-Copy-18" fill="#4D9BC1" x="0.469581749" y="0.702614379" width="197.823194" height="197.990196"></rect>
                <path d="M56.9015317,148.577582 L56.9015317,56.8287721 C56.9015317,52.7847273 58.0385499,49.8022889 60.3126204,47.8813676 C62.5866908,45.9604463 65.3913356,45 68.7266389,45 C73.2747799,45 76.7363685,45.6824223 79.1115088,47.0472875 C81.486649,48.4121526 84.1396914,51.6726149 87.0707155,56.8287721 L102.685921,84.1259386 L118.301127,56.8287721 C121.232151,51.6726149 123.885193,48.4121526 126.260334,47.0472875 C128.635474,45.6824223 132.097063,45 136.645204,45 C139.980507,45 142.785152,45.9604463 145.059222,47.8813676 C147.333293,49.8022889 148.470311,52.7847273 148.470311,56.8287721 L148.470311,148.577582 C148.470311,150.902908 147.308025,152.697426 144.98342,153.96119 C142.658815,155.224954 139.879437,155.856826 136.645204,155.856826 C133.41097,155.856826 130.631592,155.224954 128.306987,153.96119 C125.982382,152.697426 124.820096,150.902908 124.820096,148.577582 L124.820096,91.7084849 L110.266118,116.579237 C108.547932,119.511169 105.920156,120.977113 102.382713,120.977113 C98.9463402,120.977113 96.4701673,119.511169 94.9541204,116.579237 L80.5517462,90.1919756 L80.5517462,148.577582 C80.5517462,150.902908 79.3894609,152.697426 77.0648556,153.96119 C74.7402502,155.224954 71.9608725,155.856826 68.7266389,155.856826 C65.4924054,155.856826 62.7130277,155.224954 60.3884223,153.96119 C58.063817,152.697426 56.9015317,150.902908 56.9015317,148.577582 Z" fill-opacity="0.124292346" fill="#000000"></path>
                <path d="M53.9015317,145.577582 L53.9015317,53.8287721 C53.9015317,49.7847273 55.0385499,46.8022889 57.3126204,44.8813676 C59.5866908,42.9604463 62.3913356,42 65.7266389,42 C70.2747799,42 73.7363685,42.6824223 76.1115088,44.0472875 C78.486649,45.4121526 81.1396914,48.6726149 84.0707155,53.8287721 L99.6859212,81.1259386 L115.301127,53.8287721 C118.232151,48.6726149 120.885193,45.4121526 123.260334,44.0472875 C125.635474,42.6824223 129.097063,42 133.645204,42 C136.980507,42 139.785152,42.9604463 142.059222,44.8813676 C144.333293,46.8022889 145.470311,49.7847273 145.470311,53.8287721 L145.470311,145.577582 C145.470311,147.902908 144.308025,149.697426 141.98342,150.96119 C139.658815,152.224954 136.879437,152.856826 133.645204,152.856826 C130.41097,152.856826 127.631592,152.224954 125.306987,150.96119 C122.982382,149.697426 121.820096,147.902908 121.820096,145.577582 L121.820096,88.7084849 L107.266118,113.579237 C105.547932,116.511169 102.920156,117.977113 99.3827133,117.977113 C95.9463402,117.977113 93.4701673,116.511169 91.9541204,113.579237 L77.5517462,87.1919756 L77.5517462,145.577582 C77.5517462,147.902908 76.3894609,149.697426 74.0648556,150.96119 C71.7402502,152.224954 68.9608725,152.856826 65.7266389,152.856826 C62.4924054,152.856826 59.7130277,152.224954 57.3884223,150.96119 C55.063817,149.697426 53.9015317,147.902908 53.9015317,145.577582 Z" fill="#FFFFFF"></path>
            </g>
            <g id="L" transform="translate(395.000000, 0.000000)">
                <rect id="Rectangle-Copy-17" fill="#BFCE1B" x="0.646387833" y="0.702614379" width="197.823194" height="197.990196"></rect>
                <path d="M75.7549234,150.497214 L75.7549234,54.0472254 C75.7549234,51.7218996 76.9172087,49.9526565 79.241814,48.7394431 C81.5664194,47.5262296 84.3457971,46.919632 87.5800306,46.919632 C90.8142642,46.919632 93.5936419,47.5262296 95.9182473,48.7394431 C98.2428526,49.9526565 99.4051379,51.7218996 99.4051379,54.0472254 L99.4051379,137.151932 L133.970836,137.151932 C136.093302,137.151932 137.760928,138.162928 138.973766,140.184951 C140.186603,142.206973 140.793013,144.633364 140.793013,147.464195 C140.793013,150.295027 140.186603,152.721417 138.973766,154.74344 C137.760928,156.765462 136.093302,157.776458 133.970836,157.776458 L86.0639912,157.776458 C83.2340369,157.776458 80.8083981,157.144586 78.7870022,155.880822 C76.7656062,154.617058 75.7549234,152.82254 75.7549234,150.497214 Z" fill-opacity="0.124292346" fill="#000000"></path>
                <path d="M72.7549234,147.497214 L72.7549234,51.0472254 C72.7549234,48.7218996 73.9172087,46.9526565 76.241814,45.7394431 C78.5664194,44.5262296 81.3457971,43.919632 84.5800306,43.919632 C87.8142642,43.919632 90.5936419,44.5262296 92.9182473,45.7394431 C95.2428526,46.9526565 96.4051379,48.7218996 96.4051379,51.0472254 L96.4051379,134.151932 L130.970836,134.151932 C133.093302,134.151932 134.760928,135.162928 135.973766,137.184951 C137.186603,139.206973 137.793013,141.633364 137.793013,144.464195 C137.793013,147.295027 137.186603,149.721417 135.973766,151.74344 C134.760928,153.765462 133.093302,154.776458 130.970836,154.776458 L83.0639912,154.776458 C80.2340369,154.776458 77.8083981,154.144586 75.7870022,152.880822 C73.7656062,151.617058 72.7549234,149.82254 72.7549234,147.497214 Z" fill="#FFFFFF"></path>
            </g>
            <g id="E" transform="translate(197.000000, 0.000000)">
                <rect id="Rectangle-Copy-16" fill="#9C9C9C" x="0.823193916" y="0.702614379" width="197.823194" height="197.990196"></rect>
                <path d="M69.4989059,150.497214 L69.4989059,54.1988764 C69.4989059,51.8735505 70.5095887,50.0790325 72.5309847,48.8152685 C74.5523806,47.5515045 76.9780194,46.919632 79.8079737,46.919632 L133.778976,46.919632 C136.103581,46.919632 137.872276,47.930628 139.085114,49.9526505 C140.297951,51.9746729 140.904361,54.3505136 140.904361,57.0802439 C140.904361,60.0121765 140.272684,62.4891168 139.009312,64.5111393 C137.745939,66.5331617 136.002511,67.5441578 133.778976,67.5441578 L93.1491204,67.5441578 L93.1491204,93.1731641 L115.889711,93.1731641 C118.113247,93.1731641 119.856675,94.0830605 121.120047,95.9028807 C122.38342,97.7227009 123.015096,99.8963424 123.015096,102.42387 C123.015096,104.749196 122.408687,106.821738 121.195849,108.641558 C119.983011,110.461379 118.214317,111.371275 115.889711,111.371275 L93.1491204,111.371275 L93.1491204,137.151932 L133.778976,137.151932 C136.002511,137.151932 137.745939,138.162928 139.009312,140.184951 C140.272684,142.206973 140.904361,144.683914 140.904361,147.615846 C140.904361,150.345576 140.297951,152.721417 139.085114,154.74344 C137.872276,156.765462 136.103581,157.776458 133.778976,157.776458 L79.8079737,157.776458 C76.9780194,157.776458 74.5523806,157.144586 72.5309847,155.880822 C70.5095887,154.617058 69.4989059,152.82254 69.4989059,150.497214 Z" fill-opacity="0.124292346" fill="#000000"></path>
                <path d="M66.4989059,147.497214 L66.4989059,51.1988764 C66.4989059,48.8735505 67.5095887,47.0790325 69.5309847,45.8152685 C71.5523806,44.5515045 73.9780194,43.919632 76.8079737,43.919632 L130.778976,43.919632 C133.103581,43.919632 134.872276,44.930628 136.085114,46.9526505 C137.297951,48.9746729 137.904361,51.3505136 137.904361,54.0802439 C137.904361,57.0121765 137.272684,59.4891168 136.009312,61.5111393 C134.745939,63.5331617 133.002511,64.5441578 130.778976,64.5441578 L90.1491204,64.5441578 L90.1491204,90.1731641 L112.889711,90.1731641 C115.113247,90.1731641 116.856675,91.0830605 118.120047,92.9028807 C119.38342,94.7227009 120.015096,96.8963424 120.015096,99.4238705 C120.015096,101.749196 119.408687,103.821738 118.195849,105.641558 C116.983011,107.461379 115.214317,108.371275 112.889711,108.371275 L90.1491204,108.371275 L90.1491204,134.151932 L130.778976,134.151932 C133.002511,134.151932 134.745939,135.162928 136.009312,137.184951 C137.272684,139.206973 137.904361,141.683914 137.904361,144.615846 C137.904361,147.345576 137.297951,149.721417 136.085114,151.74344 C134.872276,153.765462 133.103581,154.776458 130.778976,154.776458 L76.8079737,154.776458 C73.9780194,154.776458 71.5523806,154.144586 69.5309847,152.880822 C67.5095887,151.617058 66.4989059,149.82254 66.4989059,147.497214 Z" fill="#FFFFFF"></path>
            </g>
            <g id="B">
                <path d="M163,0.702614379 L16.0002394,0.702614379 C7.15750161,0.702614379 0,7.86285555 0,16.6954607 L0,182.699964 C0,191.529266 7.16355117,198.69281 16.0002394,198.69281 L163,198.69281 L198,198.699951 L198,0.699951172 L163,0.699951172 Z" id="Combined-Shape" fill="#000000"></path>
                <path d="M68,150.648865 L68,54.1988764 C68,51.8735505 69.0106828,50.0790325 71.0320788,48.8152685 C73.0534747,47.5515045 75.4791135,46.919632 78.3090678,46.919632 L109.387875,46.919632 C129.601835,46.919632 139.708663,55.9174969 139.708663,73.9134966 C139.708663,86.0456313 135.413261,93.9819503 126.822328,97.7226918 C131.976888,99.6436131 135.868017,102.398577 138.495832,105.987667 C141.123646,109.576757 142.437534,114.909761 142.437534,121.98684 L142.437534,125.171509 C142.437534,136.494835 139.683423,144.759728 134.175119,149.966435 C128.666815,155.173143 121.263564,157.776458 111.965142,157.776458 L78.3090678,157.776458 C75.1759041,157.776458 72.6744641,157.068761 70.8046729,155.653345 C68.9348816,154.237929 68,152.569786 68,150.648865 Z M91.4986105,137.151932 L106.659004,137.151932 C114.744588,137.151932 118.787319,132.50135 118.787319,123.200047 L118.787319,120.773632 C118.787319,111.472329 114.744588,106.821747 106.659004,106.821747 L91.4986105,106.821747 L91.4986105,137.151932 Z M91.4986105,88.6236363 L107.417024,88.6236363 C110.145909,88.6236363 112.268343,87.5873654 113.784389,85.5147924 C115.300436,83.4422194 116.058449,80.9905539 116.058449,78.1597225 C116.058449,75.3288911 115.300436,72.8519507 113.784389,70.7288272 C112.268343,68.6057036 110.145909,67.5441578 107.417024,67.5441578 L91.4986105,67.5441578 L91.4986105,88.6236363 Z" fill-opacity="0.124292346" fill="#000000"></path>
                <path d="M65,147.648865 L65,51.1988764 C65,48.8735505 66.0106828,47.0790325 68.0320788,45.8152685 C70.0534747,44.5515045 72.4791135,43.919632 75.3090678,43.919632 L106.387875,43.919632 C126.601835,43.919632 136.708663,52.9174969 136.708663,70.9134966 C136.708663,83.0456313 132.413261,90.9819503 123.822328,94.7226918 C128.976888,96.6436131 132.868017,99.3985774 135.495832,102.987667 C138.123646,106.576757 139.437534,111.909761 139.437534,118.98684 L139.437534,122.171509 C139.437534,133.494835 136.683423,141.759728 131.175119,146.966435 C125.666815,152.173143 118.263564,154.776458 108.965142,154.776458 L75.3090678,154.776458 C72.1759041,154.776458 69.6744641,154.068761 67.8046729,152.653345 C65.9348816,151.237929 65,149.569786 65,147.648865 Z M88.4986105,134.151932 L103.659004,134.151932 C111.744588,134.151932 115.787319,129.50135 115.787319,120.200047 L115.787319,117.773632 C115.787319,108.472329 111.744588,103.821747 103.659004,103.821747 L88.4986105,103.821747 L88.4986105,134.151932 Z M88.4986105,85.6236363 L104.417024,85.6236363 C107.145909,85.6236363 109.268343,84.5873654 110.784389,82.5147924 C112.300436,80.4422194 113.058449,77.9905539 113.058449,75.1597225 C113.058449,72.3288911 112.300436,69.8519507 110.784389,67.7288272 C109.268343,65.6057036 107.145909,64.5441578 104.417024,64.5441578 L88.4986105,64.5441578 L88.4986105,85.6236363 Z" fill="#FFFFFF"></path>
            </g>
        </g>
    </g>
</svg>